<svg width="197" height="81" viewBox="0 0 197 81" fill="none" xmlns="http://www.w3.org/2000/svg">
<g clip-path="url(#clip0_1089_812)">
<path d="M13.8896 79.9407H13.4924V76.0369H15.6828C16.0198 76.0369 16.3047 76.0879 16.5373 76.186C16.77 76.288 16.9425 76.4253 17.0548 76.6058C17.1672 76.7862 17.2274 76.9981 17.2274 77.2453C17.2274 77.4925 17.1712 77.7043 17.0548 77.8848C16.9385 78.0653 16.766 78.2065 16.5373 78.3086C16.3047 78.4106 16.0198 78.4576 15.6828 78.4576H13.8294V78.0849H15.6828C16.0559 78.0849 16.3367 78.0064 16.5253 77.8574C16.7138 77.7043 16.8101 77.5003 16.8101 77.2453C16.8101 76.9903 16.7138 76.7902 16.5253 76.6372C16.3367 76.4841 16.0559 76.4096 15.6828 76.4096H13.8936V79.9368L13.8896 79.9407Z" fill="black"/>
<path d="M20.674 79.9956C20.2969 79.9956 19.9719 79.9289 19.6911 79.7877C19.4103 79.6504 19.1977 79.462 19.0452 79.2227C18.8928 78.9834 18.8206 78.7127 18.8206 78.4066C18.8206 78.1006 18.8928 77.8338 19.0372 77.5945C19.1816 77.3512 19.3822 77.1629 19.6389 77.0256C19.8957 76.8883 20.1886 76.8176 20.5135 76.8176C20.8385 76.8176 21.1193 76.8843 21.368 77.0216C21.6167 77.159 21.8133 77.3434 21.9537 77.5827C22.0941 77.822 22.1623 78.0967 22.1623 78.4066V78.5871H19.2217C19.2498 78.799 19.322 78.9834 19.4464 79.1442C19.5708 79.3051 19.7352 79.4267 19.9479 79.517C20.1605 79.6072 20.4012 79.6504 20.674 79.6504C20.9267 79.6504 21.1674 79.6151 21.3961 79.5405C21.6207 79.466 21.7973 79.3836 21.9176 79.2894V79.6739C21.7973 79.7563 21.6207 79.8309 21.3961 79.8976C21.1714 79.9643 20.9307 79.9956 20.674 79.9956ZM21.7652 78.2301C21.7451 78.0378 21.6849 77.8573 21.5806 77.6965C21.4803 77.5356 21.3359 77.4061 21.1554 77.3081C20.9749 77.21 20.7662 77.1629 20.5296 77.1629C20.2808 77.1629 20.0642 77.21 19.8716 77.3041C19.6791 77.3983 19.5266 77.5239 19.4143 77.6847C19.302 77.8456 19.2338 78.03 19.2217 78.2301H21.7652Z" fill="black"/>
<path d="M25.7488 79.9956C25.3958 79.9956 25.0789 79.9289 24.8061 79.7877C24.5293 79.6504 24.3166 79.462 24.1602 79.2188C24.0077 78.9755 23.9275 78.7048 23.9275 78.4066C23.9275 78.1084 24.0037 77.8338 24.1602 77.5945C24.3126 77.3512 24.5333 77.1629 24.8141 77.0256C25.0949 76.8883 25.4239 76.8176 25.7929 76.8176C26.0617 76.8176 26.3105 76.849 26.5351 76.9118C26.7598 76.9746 26.9523 77.053 27.1088 77.1394V77.5278C26.9483 77.4258 26.7558 77.3434 26.5351 77.2688C26.3105 77.1982 26.0657 77.159 25.7929 77.159C25.4921 77.159 25.2313 77.21 25.0107 77.3159C24.79 77.4218 24.6215 77.567 24.5052 77.7553C24.3888 77.9437 24.3287 78.1595 24.3287 78.4027C24.3287 78.646 24.3888 78.8578 24.5052 79.0462C24.6215 79.2345 24.79 79.3797 25.0026 79.4856C25.2153 79.5915 25.464 79.6425 25.7448 79.6425C26.0256 79.6425 26.2623 79.6111 26.487 79.5444C26.7116 79.4777 26.8801 79.4032 26.9925 79.3208V79.6935C26.8801 79.772 26.7076 79.8426 26.483 79.9015C26.2583 79.9603 26.0096 79.9917 25.7448 79.9917L25.7488 79.9956Z" fill="black"/>
<path d="M30.0083 79.9407V77.2335H28.5601V76.8765H31.8537V77.2335H30.4055V79.9407H30.0083Z" fill="black"/>
<path d="M34.5294 79.9956C34.1282 79.9956 33.8273 79.9132 33.6187 79.7524C33.4101 79.5915 33.3098 79.3718 33.3098 79.0972C33.3098 78.8068 33.4342 78.5753 33.6789 78.4027C33.9236 78.2301 34.3087 78.1438 34.8343 78.1438C35.1833 78.1438 35.4481 78.1281 35.6326 78.0928C35.8131 78.0574 35.9375 78.0104 35.9977 77.9515C36.0579 77.8887 36.0899 77.8063 36.0899 77.7043C36.0899 77.6023 36.0538 77.5121 35.9816 77.4336C35.9094 77.3551 35.7891 77.2884 35.6206 77.2374C35.4521 77.1864 35.2314 77.1629 34.9626 77.1629C34.6778 77.1629 34.401 77.2021 34.1322 77.2767C33.8634 77.3551 33.6508 77.4415 33.4984 77.5356V77.1511C33.6267 77.0648 33.8273 76.9903 34.0961 76.9196C34.3649 76.849 34.6618 76.8176 34.9787 76.8176C35.3357 76.8176 35.6286 76.8569 35.8492 76.9353C36.0699 77.0138 36.2344 77.1197 36.3347 77.2571C36.435 77.3944 36.4871 77.5552 36.4871 77.7357V79.9368H36.0859V79.4189C36.0017 79.5091 35.8853 79.5994 35.7329 79.6857C35.5805 79.7759 35.3999 79.8505 35.1953 79.9054C34.9867 79.9643 34.7661 79.9917 34.5294 79.9917V79.9956ZM34.6217 79.6504C34.8543 79.6504 35.067 79.619 35.2675 79.5601C35.4641 79.4974 35.6326 79.4228 35.773 79.3326C35.9134 79.2423 36.0177 79.1482 36.0899 79.0579V78.2222C36.0699 78.2615 36.0097 78.2968 35.9094 78.336C35.8091 78.3752 35.6647 78.4066 35.4802 78.4302C35.2956 78.4537 35.075 78.4655 34.8142 78.4655C34.4291 78.4655 34.1483 78.5243 33.9718 78.6381C33.7952 78.7519 33.707 78.901 33.707 79.0854C33.707 79.2698 33.7832 79.3993 33.9316 79.5013C34.0801 79.6033 34.3127 79.6543 34.6176 79.6543L34.6217 79.6504Z" fill="black"/>
<path d="M38.5095 79.9407V76.8765H40.2667C40.5435 76.8765 40.7761 76.9157 40.9647 76.9863C41.1533 77.0609 41.2937 77.159 41.3819 77.2845C41.4742 77.4101 41.5183 77.5474 41.5183 77.7043C41.5183 77.8338 41.4862 77.9554 41.418 78.0653C41.3498 78.1751 41.2576 78.2654 41.1372 78.336C41.0169 78.4066 40.8764 78.4459 40.716 78.4576V78.4851C40.9807 78.5047 41.1813 78.5753 41.3177 78.7009C41.4541 78.8264 41.5183 78.9794 41.5183 79.1678C41.5183 79.3953 41.422 79.5797 41.2295 79.7249C41.0369 79.8701 40.7521 79.9407 40.375 79.9407H38.5095ZM40.3509 79.5837C40.6117 79.5837 40.8082 79.5405 40.9326 79.4542C41.057 79.3679 41.1212 79.258 41.1212 79.1207C41.1212 78.9834 41.061 78.8657 40.9366 78.7793C40.8123 78.693 40.6197 78.6499 40.3509 78.6499H38.8425V78.2928H40.2506C40.5515 78.2928 40.7721 78.2458 40.9125 78.1477C41.053 78.0496 41.1252 77.9201 41.1252 77.7592C41.1252 77.5984 41.053 77.4728 40.9125 77.3747C40.7721 77.2767 40.5515 77.2296 40.2506 77.2296H38.9107V79.5797H40.3509V79.5837Z" fill="black"/>
<path d="M43.4846 81.0001V76.8765H43.8818V77.3513H43.9099C44.0262 77.2179 44.2027 77.0962 44.4394 76.9864C44.6761 76.8765 44.9369 76.8216 45.2217 76.8216C45.5627 76.8216 45.8676 76.8922 46.1324 77.0295C46.3971 77.1669 46.6017 77.3552 46.7462 77.5945C46.8906 77.8338 46.9628 78.1046 46.9628 78.4106C46.9628 78.7166 46.8906 78.9873 46.7462 79.2267C46.6017 79.466 46.3971 79.6543 46.1324 79.7917C45.8676 79.929 45.5667 79.9996 45.2217 79.9996C44.9369 79.9996 44.6761 79.9447 44.4394 79.8348C44.2027 79.725 44.0262 79.6033 43.9099 79.4699H43.8818V81.004H43.4846V81.0001ZM45.1495 79.6504C45.4383 79.6504 45.6871 79.5994 45.9037 79.4935C46.1203 79.3875 46.2808 79.2424 46.3931 79.054C46.5055 78.8657 46.5656 78.6499 46.5656 78.4106C46.5656 78.1713 46.5095 77.9555 46.3931 77.7672C46.2768 77.5788 46.1163 77.4337 45.9037 77.3277C45.6911 77.2218 45.4383 77.1669 45.1495 77.1669C44.9569 77.1669 44.7724 77.1982 44.6039 77.261C44.4354 77.3238 44.291 77.4062 44.1666 77.5004C44.0463 77.5984 43.95 77.6926 43.8818 77.7907V79.0266C43.95 79.1247 44.0463 79.2188 44.1666 79.3169C44.287 79.415 44.4354 79.4935 44.6039 79.5563C44.7724 79.619 44.9529 79.6504 45.1495 79.6504Z" fill="black"/>
<path d="M49.9471 79.9956C49.5459 79.9956 49.2451 79.9132 49.0364 79.7524C48.8278 79.5915 48.7275 79.3718 48.7275 79.0972C48.7275 78.8068 48.8519 78.5753 49.0966 78.4027C49.3413 78.2301 49.7265 78.1438 50.252 78.1438C50.601 78.1438 50.8658 78.1281 51.0503 78.0928C51.2309 78.0574 51.3552 78.0104 51.4154 77.9515C51.4756 77.8887 51.5077 77.8063 51.5077 77.7043C51.5077 77.6023 51.4716 77.5121 51.3993 77.4336C51.3271 77.3551 51.2068 77.2884 51.0383 77.2374C50.8698 77.1864 50.6492 77.1629 50.3804 77.1629C50.0955 77.1629 49.8187 77.2021 49.5499 77.2767C49.2812 77.3551 49.0685 77.4415 48.9161 77.5356V77.1511C49.0445 77.0648 49.2451 76.9903 49.5138 76.9196C49.7826 76.849 50.0795 76.8176 50.3964 76.8176C50.7535 76.8176 51.0463 76.8569 51.267 76.9353C51.4876 77.0138 51.6521 77.1197 51.7524 77.2571C51.8527 77.3944 51.9048 77.5552 51.9048 77.7357V79.9368H51.5037V79.4189C51.4194 79.5091 51.3031 79.5994 51.1506 79.6857C50.9982 79.7759 50.8177 79.8505 50.6131 79.9054C50.4044 79.9643 50.1838 79.9917 49.9471 79.9917V79.9956ZM50.0394 79.6504C50.2721 79.6504 50.4847 79.619 50.6853 79.5601C50.8818 79.4974 51.0503 79.4228 51.1907 79.3326C51.3312 79.2423 51.4355 79.1482 51.5077 79.0579V78.2222C51.4876 78.2615 51.4274 78.2968 51.3271 78.336C51.2268 78.3752 51.0824 78.4066 50.8979 78.4302C50.7133 78.4537 50.4927 78.4655 50.2319 78.4655C49.8468 78.4655 49.566 78.5243 49.3895 78.6381C49.213 78.7519 49.1247 78.901 49.1247 79.0854C49.1247 79.2698 49.2009 79.3993 49.3494 79.5013C49.4978 79.6033 49.7305 79.6543 50.0354 79.6543L50.0394 79.6504Z" fill="black"/>
<path d="M56.9826 80.8354V79.9447H53.9216V76.8805H54.3188V79.5877H56.4891V76.8805H56.8863V79.5877H57.3757V80.8354H56.9746H56.9826Z" fill="black"/>
<path d="M59.0933 79.9407V76.8765H59.4904V79.5287H59.5185L61.5805 76.8765H62.1221V79.9407H61.725V77.2884H61.6969L59.6348 79.9407H59.0933Z" fill="black"/>
<path d="M64.064 79.9407L65.1752 78.8382V78.8264C65.0268 78.8264 64.8623 78.799 64.6858 78.7401C64.5053 78.6813 64.3488 78.5832 64.2124 78.438C64.076 78.2968 64.0078 78.1045 64.0078 77.8613C64.0078 77.6612 64.0559 77.4846 64.1482 77.3394C64.2405 77.1943 64.3849 77.0805 64.5775 76.9981C64.77 76.9157 65.0107 76.8765 65.2996 76.8765H66.9805V79.9407H66.5833V78.8382H65.6767L64.5654 79.9407H64.068H64.064ZM65.2956 78.4812H66.5793V77.2335H65.2956C64.9947 77.2335 64.7741 77.2884 64.6256 77.4022C64.4772 77.516 64.405 77.669 64.405 77.8613C64.405 78.0535 64.4772 78.2026 64.6256 78.3125C64.7741 78.4223 64.9947 78.4812 65.2916 78.4812H65.2956Z" fill="black"/>
<path d="M71.8801 79.9407V76.8765H72.2773V79.5287H72.3054L74.3674 76.8765H74.909V79.9407H74.5118V77.2884H74.4837L72.4217 79.9407H71.8801Z" fill="black"/>
<path d="M81.2019 78.9206C80.7406 78.9206 80.3795 78.8107 80.1187 78.5949C79.858 78.3792 79.7256 78.0653 79.7256 77.6612V76.8765H80.1227V77.6768C80.1227 77.9554 80.223 78.1751 80.4196 78.3281C80.6162 78.4851 80.885 78.5636 81.2179 78.5636C81.4065 78.5636 81.5951 78.5479 81.7756 78.5204C81.9561 78.4929 82.1406 78.4459 82.3292 78.3792V78.7362C82.1286 78.799 81.936 78.846 81.7555 78.8735C81.571 78.9049 81.3905 78.9206 81.2019 78.9206ZM82.257 79.9407V76.8765H82.6541V79.9407H82.257Z" fill="black"/>
<path d="M84.709 79.9407V76.8765H85.1061V79.5287H85.1342L87.1963 76.8765H87.7378V79.9407H87.3407V77.2884H87.3126L85.2506 79.9407H84.709Z" fill="black"/>
<path d="M91.4685 79.9956C91.1155 79.9956 90.7986 79.9289 90.5258 79.7877C90.249 79.6504 90.0363 79.462 89.8799 79.2188C89.7274 78.9755 89.6472 78.7048 89.6472 78.4066C89.6472 78.1084 89.7234 77.8338 89.8799 77.5945C90.0323 77.3512 90.253 77.1629 90.5338 77.0256C90.8146 76.8883 91.1436 76.8176 91.5127 76.8176C91.7815 76.8176 92.0302 76.849 92.2548 76.9118C92.4795 76.9746 92.6721 77.053 92.8285 77.1394V77.5278C92.668 77.4258 92.4755 77.3434 92.2548 77.2688C92.0302 77.1982 91.7855 77.159 91.5127 77.159C91.2118 77.159 90.951 77.21 90.7304 77.3159C90.5097 77.4218 90.3412 77.567 90.2249 77.7553C90.1086 77.9437 90.0484 78.1595 90.0484 78.4027C90.0484 78.646 90.1086 78.8578 90.2249 79.0462C90.3412 79.2345 90.5097 79.3797 90.7224 79.4856C90.935 79.5915 91.1837 79.6425 91.4645 79.6425C91.7454 79.6425 91.982 79.6111 92.2067 79.5444C92.4314 79.4777 92.5998 79.4032 92.7122 79.3208V79.6935C92.5998 79.772 92.4273 79.8426 92.2027 79.9015C91.978 79.9603 91.7293 79.9917 91.4645 79.9917L91.4685 79.9956Z" fill="black"/>
<path d="M95.7302 79.9407V77.2335H94.282V76.8765H97.5756V77.2335H96.1274V79.9407H95.7302Z" fill="black"/>
<path d="M99.2039 79.9407V76.8765H99.601V78.2693L101.567 76.8765H102.152L100.022 78.3831L102.152 79.9446H101.567L99.601 78.4929V79.9446H99.2039V79.9407Z" fill="black"/>
<path d="M104.771 79.9956C104.37 79.9956 104.069 79.9132 103.86 79.7524C103.652 79.5915 103.551 79.3718 103.551 79.0972C103.551 78.8068 103.676 78.5753 103.92 78.4027C104.165 78.2301 104.55 78.1438 105.076 78.1438C105.425 78.1438 105.69 78.1281 105.874 78.0928C106.055 78.0574 106.179 78.0104 106.239 77.9515C106.299 77.8887 106.331 77.8063 106.331 77.7043C106.331 77.6023 106.295 77.5121 106.223 77.4336C106.151 77.3551 106.031 77.2884 105.862 77.2374C105.694 77.1864 105.473 77.1629 105.204 77.1629C104.919 77.1629 104.642 77.2021 104.374 77.2767C104.105 77.3551 103.892 77.4415 103.74 77.5356V77.1511C103.868 77.0648 104.069 76.9903 104.338 76.9196C104.606 76.849 104.903 76.8176 105.22 76.8176C105.577 76.8176 105.87 76.8569 106.091 76.9353C106.311 77.0138 106.476 77.1197 106.576 77.2571C106.676 77.3944 106.729 77.5552 106.729 77.7357V79.9368H106.327V79.4189C106.243 79.5091 106.127 79.5994 105.974 79.6857C105.822 79.7759 105.641 79.8505 105.437 79.9054C105.228 79.9643 105.008 79.9917 104.771 79.9917V79.9956ZM104.859 79.6504C105.092 79.6504 105.304 79.619 105.505 79.5601C105.702 79.4974 105.87 79.4228 106.01 79.3326C106.151 79.2423 106.255 79.1482 106.327 79.0579V78.2222C106.307 78.2615 106.247 78.2968 106.147 78.336C106.047 78.3752 105.902 78.4066 105.718 78.4302C105.533 78.4537 105.312 78.4655 105.052 78.4655C104.667 78.4655 104.386 78.5243 104.209 78.6381C104.033 78.7519 103.944 78.901 103.944 79.0854C103.944 79.2698 104.021 79.3993 104.169 79.5013C104.318 79.6033 104.55 79.6543 104.855 79.6543L104.859 79.6504Z" fill="black"/>
<path d="M111.599 79.9407V76.8765H111.997V78.2693L113.962 76.8765H114.548L112.418 78.3831L114.548 79.9446H113.962L111.997 78.4929V79.9446H111.599V79.9407Z" fill="black"/>
<path d="M117.741 79.9956C117.356 79.9956 117.023 79.9289 116.742 79.7877C116.458 79.6504 116.241 79.462 116.089 79.2188C115.936 78.9755 115.86 78.7048 115.86 78.4066C115.86 78.1084 115.936 77.8338 116.089 77.5945C116.241 77.3512 116.458 77.1629 116.742 77.0256C117.027 76.8883 117.36 76.8176 117.741 76.8176C118.122 76.8176 118.459 76.8883 118.74 77.0256C119.025 77.1629 119.242 77.3512 119.394 77.5945C119.547 77.8377 119.623 78.1084 119.623 78.4066C119.623 78.7048 119.547 78.9795 119.394 79.2188C119.242 79.462 119.025 79.6504 118.74 79.7877C118.455 79.925 118.122 79.9956 117.741 79.9956ZM117.741 79.6504C118.054 79.6504 118.319 79.5994 118.544 79.4934C118.768 79.3875 118.937 79.2423 119.049 79.054C119.162 78.8657 119.222 78.6499 119.222 78.4027C119.222 78.1555 119.166 77.9397 119.049 77.7553C118.933 77.5709 118.764 77.4218 118.544 77.3159C118.323 77.21 118.054 77.159 117.741 77.159C117.428 77.159 117.164 77.21 116.939 77.3159C116.714 77.4218 116.546 77.567 116.434 77.7553C116.321 77.9437 116.261 78.1595 116.261 78.4027C116.261 78.646 116.317 78.8657 116.434 79.054C116.55 79.2423 116.718 79.3875 116.939 79.4934C117.16 79.5994 117.428 79.6504 117.741 79.6504Z" fill="black"/>
<path d="M120.952 79.9407L122.917 78.3752L120.936 76.8765H121.505L123.335 78.2654V76.8765H123.732V78.2654L125.561 76.8765H126.131L124.149 78.3752L126.115 79.9407H125.545L123.732 78.4851V79.9407H123.335V78.4851L121.521 79.9407H120.952Z" fill="black"/>
<path d="M128.751 79.9956C128.35 79.9956 128.049 79.9132 127.84 79.7524C127.632 79.5915 127.531 79.3718 127.531 79.0972C127.531 78.8068 127.656 78.5753 127.9 78.4027C128.145 78.2301 128.53 78.1438 129.056 78.1438C129.405 78.1438 129.669 78.1281 129.854 78.0928C130.035 78.0574 130.159 78.0104 130.219 77.9515C130.279 77.8887 130.311 77.8063 130.311 77.7043C130.311 77.6023 130.275 77.5121 130.203 77.4336C130.131 77.3551 130.01 77.2884 129.842 77.2374C129.674 77.1864 129.453 77.1629 129.184 77.1629C128.899 77.1629 128.622 77.2021 128.354 77.2767C128.085 77.3551 127.872 77.4415 127.72 77.5356V77.1511C127.848 77.0648 128.049 76.9903 128.318 76.9196C128.586 76.849 128.883 76.8176 129.2 76.8176C129.557 76.8176 129.85 76.8569 130.071 76.9353C130.291 77.0138 130.456 77.1197 130.556 77.2571C130.656 77.3944 130.709 77.5552 130.709 77.7357V79.9368H130.307V79.4189C130.223 79.5091 130.107 79.5994 129.954 79.6857C129.802 79.7759 129.621 79.8505 129.417 79.9054C129.208 79.9643 128.987 79.9917 128.751 79.9917V79.9956ZM128.839 79.6504C129.072 79.6504 129.284 79.619 129.485 79.5601C129.682 79.4974 129.85 79.4228 129.99 79.3326C130.131 79.2423 130.235 79.1482 130.307 79.0579V78.2222C130.287 78.2615 130.227 78.2968 130.127 78.336C130.027 78.3752 129.882 78.4066 129.698 78.4302C129.513 78.4537 129.292 78.4655 129.032 78.4655C128.647 78.4655 128.366 78.5243 128.189 78.6381C128.013 78.7519 127.924 78.901 127.924 79.0854C127.924 79.2698 128.001 79.3993 128.149 79.5013C128.297 79.6033 128.53 79.6543 128.835 79.6543L128.839 79.6504Z" fill="black"/>
<path d="M132.726 79.9407V76.8765H133.123V79.9407H132.726ZM133.059 78.5361V78.1791H135.446V78.5361H133.059ZM135.377 79.9407V76.8765H135.775V79.9407H135.377Z" fill="black"/>
<path d="M139.609 77.9476C140.034 77.9476 140.355 78.0378 140.572 78.2144C140.789 78.3909 140.897 78.6342 140.897 78.9441C140.897 79.2541 140.789 79.4973 140.572 79.6739C140.355 79.8505 140.034 79.9407 139.609 79.9407H137.824V76.8765H138.221V79.5837H139.605C139.902 79.5837 140.123 79.5248 140.271 79.411C140.42 79.2972 140.492 79.1403 140.492 78.9441C140.492 78.748 140.42 78.591 140.271 78.4772C140.123 78.3635 139.902 78.3046 139.605 78.3046H138.153V77.9476H139.605H139.609ZM141.362 79.9407V76.8765H141.759V79.9407H141.362Z" fill="black"/>
<path d="M143.357 79.9407L144.725 78.387L143.401 76.8765H143.878L144.949 78.1124H144.978L146.065 76.8765H146.522L145.198 78.3635L146.566 79.9407H146.089L144.978 78.6381H144.949L143.81 79.9407H143.353H143.357Z" fill="black"/>
<path d="M151.015 79.9407V76.8765H151.412V79.5287H151.44L153.502 76.8765H154.044V79.9407H153.647V77.2884H153.619L151.557 79.9407H151.015Z" fill="black"/>
<path d="M157.329 79.9957C157.077 79.9957 156.832 79.9682 156.595 79.9133C156.363 79.8583 156.178 79.7995 156.038 79.7328V79.3483C156.174 79.4268 156.359 79.4974 156.591 79.5562C156.824 79.619 157.061 79.6465 157.309 79.6465C157.678 79.6465 157.947 79.5994 158.112 79.4974C158.28 79.3993 158.36 79.2698 158.36 79.1168C158.36 78.9638 158.272 78.8304 158.1 78.7323C157.927 78.6342 157.638 78.5871 157.245 78.5871H156.627V78.2301H157.233C157.486 78.2301 157.698 78.2066 157.863 78.1555C158.027 78.1045 158.148 78.0418 158.224 77.9633C158.296 77.8848 158.336 77.7946 158.336 77.7004C158.336 77.6063 158.3 77.516 158.228 77.4336C158.156 77.3512 158.039 77.2845 157.879 77.2335C157.719 77.1825 157.518 77.159 157.269 77.159C157.02 77.159 156.768 77.1904 156.531 77.2531C156.294 77.3159 156.102 77.3905 155.953 77.4689V77.0844C156.102 77.0138 156.294 76.951 156.531 76.8961C156.768 76.8412 157.016 76.8137 157.269 76.8137C157.602 76.8137 157.879 76.853 158.1 76.9314C158.316 77.0099 158.477 77.1119 158.581 77.2414C158.685 77.3709 158.734 77.5121 158.734 77.669C158.734 77.7828 158.697 77.8966 158.625 78.0025C158.553 78.1085 158.449 78.1948 158.316 78.2693C158.18 78.34 158.023 78.3831 157.847 78.3988V78.4263C158.148 78.4537 158.376 78.5322 158.533 78.6617C158.689 78.7912 158.766 78.9559 158.766 79.156C158.766 79.313 158.717 79.4542 158.613 79.5798C158.509 79.7053 158.356 79.8073 158.14 79.8819C157.923 79.9603 157.654 79.9957 157.329 79.9957Z" fill="black"/>
<path d="M160.193 80.8352V79.5876H160.586C160.65 79.5091 160.714 79.3835 160.779 79.207C160.843 79.0304 160.899 78.8068 160.943 78.54C160.987 78.2732 161.011 77.9711 161.011 77.6376V76.8804H163.466V79.5876H163.956V80.8352H163.555V79.9446H160.586V80.8352H160.185H160.193ZM161.007 79.5836H163.069V77.2335H161.412V77.6337C161.412 78.077 161.368 78.4694 161.284 78.8146C161.2 79.1599 161.108 79.4149 161.007 79.5719V79.5836Z" fill="black"/>
<path d="M167.379 79.9956C167.002 79.9956 166.677 79.9289 166.396 79.7877C166.115 79.6504 165.902 79.462 165.75 79.2227C165.598 78.9834 165.525 78.7127 165.525 78.4066C165.525 78.1006 165.598 77.8338 165.742 77.5945C165.886 77.3512 166.087 77.1629 166.344 77.0256C166.601 76.8883 166.893 76.8176 167.218 76.8176C167.543 76.8176 167.824 76.8843 168.073 77.0216C168.322 77.159 168.518 77.3434 168.659 77.5827C168.799 77.822 168.867 78.0967 168.867 78.4066V78.5871H165.927C165.955 78.799 166.027 78.9834 166.151 79.1442C166.276 79.3051 166.44 79.4267 166.653 79.517C166.865 79.6072 167.106 79.6504 167.379 79.6504C167.632 79.6504 167.872 79.6151 168.101 79.5405C168.326 79.466 168.502 79.3836 168.622 79.2894V79.6739C168.502 79.7563 168.326 79.8309 168.101 79.8976C167.876 79.9643 167.636 79.9956 167.379 79.9956ZM168.466 78.2301C168.446 78.0378 168.386 77.8573 168.281 77.6965C168.181 77.5356 168.037 77.4061 167.856 77.3081C167.676 77.21 167.467 77.1629 167.23 77.1629C166.982 77.1629 166.765 77.21 166.572 77.3041C166.38 77.3983 166.227 77.5239 166.115 77.6847C166.003 77.8456 165.935 78.03 165.923 78.2301H168.466Z" fill="black"/>
<path d="M170.376 79.9015C170.496 79.7681 170.612 79.513 170.717 79.1403C170.825 78.7676 170.885 78.3164 170.905 77.7946L170.941 76.8765H173.449V79.9407H173.052V77.2335H171.331L171.306 77.8299C171.286 78.3595 171.226 78.8068 171.118 79.1835C171.01 79.5562 170.901 79.8112 170.789 79.9446H170.38V79.9054L170.376 79.9015Z" fill="black"/>
<path d="M175.502 79.9407V76.8765H175.9V79.5287H175.928L177.99 76.8765H178.531V79.9407H178.134V77.2884H178.106L176.044 79.9407H175.502Z" fill="black"/>
<path d="M180.586 79.9407V76.8765H180.983V79.5287H181.011L183.073 76.8765H183.615V79.9407H183.217V77.2884H183.189L181.127 79.9407H180.586Z" fill="black"/>
<path d="M0 67.5974V67.3856C0.365067 67.3267 0.702053 67.2365 1.01898 67.107C1.33189 66.9775 1.60068 66.7931 1.81731 66.5499C1.88952 66.4636 1.94569 66.3419 1.98179 66.185C2.0179 66.0281 2.04598 65.8437 2.07005 65.6279C2.09412 65.4121 2.10616 65.1884 2.11418 64.953C2.12221 64.7176 2.12622 64.4861 2.12622 64.2586C2.12622 64.0585 2.12622 63.7878 2.13825 63.4464C2.14628 63.1051 2.1543 62.7284 2.15831 62.3243C2.16633 61.9163 2.17035 61.5004 2.17035 61.0727V54.8893C2.17035 54.6343 2.15831 54.395 2.13825 54.1713C2.11819 53.9477 2.08209 53.7515 2.03796 53.571C1.99383 53.3906 1.92964 53.2532 1.84138 53.1552C1.63679 52.9119 1.38405 52.7393 1.08718 52.6294C0.790311 52.5235 0.449314 52.4489 0.0681994 52.4058V52.1939H6.61133V52.4058C6.30644 52.4489 5.97748 52.5274 5.62846 52.6412C5.27944 52.755 5.00664 52.9825 4.81809 53.3278C4.6857 53.571 4.6175 53.8771 4.60948 54.2459C4.60145 54.6186 4.59343 54.9678 4.57738 55.2934C4.57738 55.6505 4.57738 56.0036 4.56535 56.3528C4.55331 56.702 4.55331 57.0551 4.55331 57.4121V64.5803C4.55331 64.9923 4.56134 65.3925 4.57337 65.777C4.58942 66.1615 4.65361 66.4322 4.76995 66.5891C4.94646 66.8324 5.21926 67.0168 5.60038 67.1462C5.98149 67.2757 6.32249 67.3542 6.62738 67.3817V67.5935H0V67.5974Z" fill="#281822"/>
<path d="M24.9334 52.8138C24.6045 53.0139 24.3517 53.32 24.1792 53.7319C24.0789 53.9438 24.0107 54.3401 23.9826 54.9207C23.9546 55.4975 23.9225 56.1135 23.8944 56.7726C23.8663 57.3847 23.8422 58.1105 23.8182 58.9462C23.7941 59.7819 23.7861 60.6765 23.7861 61.6299V62.9992C23.7861 63.4974 23.7861 64.0075 23.7981 64.5293C23.8061 65.0511 23.8101 65.5651 23.8101 66.0791V67.468C23.8101 67.5268 23.7901 67.57 23.754 67.6092C23.7179 67.6445 23.6617 67.6642 23.5895 67.6642C23.4731 67.6642 23.3408 67.5935 23.1963 67.4484C21.9567 66.0516 20.8254 64.7686 19.8064 63.5955C18.7834 62.4263 17.8126 61.3081 16.8859 60.2449C15.9592 59.1816 15.0525 58.1458 14.1619 57.1296C13.2713 56.1174 12.3326 55.0698 11.3377 53.983V63.0148C11.3377 63.7407 11.3537 64.3998 11.3938 64.9844C11.4299 65.569 11.5222 66.0045 11.6666 66.2909C11.8271 66.6205 12.0798 66.8638 12.4208 67.0286C12.7658 67.1933 13.2352 67.311 13.833 67.3817V67.5935H8.44922V67.3817C8.79824 67.3385 9.15127 67.2483 9.50029 67.1149C9.84931 66.9815 10.1261 66.7539 10.3307 66.44C10.5353 66.1419 10.6677 65.6985 10.7239 65.1139C10.78 64.5293 10.8242 63.8309 10.8563 63.0148C10.8843 62.4028 10.9084 61.6769 10.9204 60.8413C10.9365 60.0056 10.9405 59.111 10.9405 58.1537V55.5446C10.9405 55.2582 10.9325 54.909 10.9204 54.497C10.8763 54.085 10.772 53.7437 10.6156 53.4808C10.4551 53.2179 10.2665 53.01 10.0459 52.8609C9.82524 52.7118 9.58855 52.6059 9.33581 52.5392C9.07906 52.4764 8.83435 52.4293 8.60166 52.4019V52.19H13.0426L23.413 64.0428V56.7687C23.413 56.1998 23.4049 55.6544 23.3929 55.1326C23.3769 54.6108 23.3127 54.2027 23.1963 53.9046C23.0479 53.5044 22.7912 53.1787 22.4181 52.9315C22.045 52.6844 21.5114 52.5078 20.8094 52.4058V52.1939H26.2372V52.4058C25.6956 52.4764 25.2624 52.6137 24.9374 52.8138H24.9334Z" fill="#281822"/>
<path d="M47.1056 57.1571C46.917 56.4705 46.6322 55.8309 46.2511 55.2306C45.87 54.6304 45.4247 54.1125 44.9072 53.6691C44.3896 53.2297 43.8039 52.8766 43.158 52.6215C42.5081 52.3665 41.8181 52.237 41.092 52.237C40.0851 52.237 39.1904 52.4568 38.4001 52.9001C37.6138 53.3435 36.9519 53.9281 36.4183 54.6539C35.8848 55.3797 35.4796 56.2037 35.1948 57.1257C34.9099 58.0477 34.7695 58.9893 34.7695 59.9624C34.7695 60.9903 34.9179 61.9515 35.2188 62.85C35.5157 63.7485 35.9449 64.5293 36.4986 65.1923C37.0522 65.8554 37.7221 66.3811 38.5125 66.7656C39.2988 67.1501 40.1733 67.3424 41.1361 67.3424C41.8943 67.3424 42.6044 67.2051 43.2704 66.9344C43.9323 66.6636 44.522 66.3066 45.0435 65.8632C45.5651 65.4199 45.9983 64.9098 46.3554 64.3331C46.7124 63.7563 46.9571 63.16 47.0895 62.5479H47.3503L47.2861 67.2561H47.0213C46.8448 67.0128 46.6643 66.7931 46.4757 66.593C46.2872 66.3929 46.1548 66.2948 46.0826 66.2948C46.0545 66.2948 45.9221 66.3694 45.6894 66.5185C45.4568 66.6676 45.1198 66.8323 44.6825 67.0089C44.2452 67.1894 43.7117 67.3424 43.0858 67.4797C42.46 67.617 41.7379 67.6837 40.9195 67.6837C39.5635 67.6837 38.3359 67.4954 37.2447 67.1148C36.1495 66.7382 35.2228 66.2007 34.4526 65.5101C33.6863 64.8196 33.1006 63.9918 32.6914 63.0266C32.2822 62.0614 32.0776 61.006 32.0776 59.8486C32.0776 59.5935 32.0937 59.2993 32.1298 58.9736C32.1659 58.6441 32.2301 58.2949 32.3264 57.9261C32.4226 57.5533 32.551 57.1649 32.7195 56.7608C32.888 56.3528 33.1046 55.9447 33.3654 55.5328C33.6703 55.0462 34.0514 54.5833 34.5047 54.1438C34.9581 53.7044 35.4916 53.3121 36.1014 52.9786C36.7152 52.6451 37.4052 52.3744 38.1795 52.1782C38.9537 51.982 39.8203 51.88 40.7831 51.88C41.6576 51.88 42.4239 51.9585 43.0818 52.1154C43.7397 52.2724 44.2853 52.445 44.7226 52.6294C45.1599 52.8138 45.4969 52.9864 45.7296 53.1434C45.9622 53.3003 46.0946 53.3788 46.1227 53.3788C46.1508 53.3788 46.2069 53.3474 46.2872 53.2807C46.3674 53.2179 46.4557 53.1394 46.5479 53.0453C46.6402 52.9511 46.7405 52.8452 46.8448 52.7236C46.9491 52.6019 47.0414 52.4764 47.1296 52.3469H47.3704V57.1414L47.1096 57.161L47.1056 57.1571Z" fill="#281822"/>
<path d="M63.2333 67.5974H49.1882V67.3856C49.5533 67.3267 49.9144 67.2365 50.2714 67.107C50.6284 66.9775 50.9093 66.801 51.1139 66.5695C51.1861 66.4832 51.2503 66.3576 51.2984 66.1968C51.3465 66.0359 51.3907 65.8437 51.4188 65.6279C51.4468 65.416 51.4749 65.1884 51.495 64.953C51.515 64.7176 51.5271 64.4861 51.5271 64.2586C51.5271 64.0585 51.5271 63.7878 51.5391 63.4464C51.5471 63.1051 51.5552 62.7284 51.5592 62.3243C51.5672 61.9163 51.5712 61.5004 51.5712 61.0727V54.9325C51.5712 54.6775 51.5592 54.4381 51.5391 54.2145C51.519 53.9948 51.487 53.7986 51.4428 53.626C51.3987 53.4533 51.3345 53.3199 51.2462 53.2179C51.0417 52.9747 50.7689 52.7903 50.4279 52.6608C50.0869 52.5313 49.7258 52.4489 49.3447 52.4058V52.1939H56.3251V52.4058C56.1365 52.4332 55.9079 52.4764 55.6471 52.5352C55.3864 52.5902 55.1376 52.6843 54.9049 52.8138C54.6723 52.9433 54.4717 53.1238 54.3032 53.3592C54.1347 53.5946 54.0424 53.9045 54.0304 54.289C54.0143 54.7873 54.0063 55.2464 53.9983 55.6583C53.9903 56.0742 53.9823 56.4783 53.9782 56.8785C53.9702 57.2787 53.9662 57.6907 53.9662 58.1183V62.0143C53.9662 62.3871 53.9662 62.7677 53.9782 63.16C53.9863 63.5523 53.9903 63.9918 53.9903 64.4744C54.0063 64.9295 54.0224 65.365 54.0464 65.7809C54.0665 66.1928 54.1427 66.5028 54.2751 66.7029C54.3313 66.7735 54.4516 66.8441 54.6241 66.9148C54.8006 66.9854 55.0093 67.0482 55.258 67.0952C55.5067 67.1462 55.7755 67.1894 56.0683 67.2247C56.3612 67.26 56.6501 67.2796 56.9429 67.2796C57.0592 67.2796 57.2438 67.2796 57.5005 67.2679C57.7533 67.26 58.0381 67.2483 58.343 67.2247C58.6479 67.2012 58.9608 67.1698 59.2817 67.1266C59.6027 67.0835 59.8875 67.0285 60.1362 66.954C60.722 66.7971 61.2034 66.5891 61.5925 66.3341C61.9816 66.0791 62.3106 65.7809 62.5874 65.4474C62.8642 65.1139 63.0969 64.749 63.2854 64.3567C63.474 63.9643 63.6585 63.5563 63.8351 63.1286L64.0517 63.1914L63.2413 67.6014L63.2333 67.5974Z" fill="#281822"/>
<path d="M78.2168 67.5974H64.8257V67.3856C65.1908 67.3267 65.5277 67.2365 65.8447 67.107C66.1576 66.9775 66.4183 66.801 66.6229 66.5695C66.6952 66.4832 66.7553 66.3576 66.7995 66.1968C66.8436 66.0359 66.8837 65.8436 66.9198 65.6279C66.9559 65.416 66.98 65.1884 66.996 64.953C67.0121 64.7176 67.0161 64.4861 67.0161 64.2586C67.0161 64.0585 67.0161 63.7877 67.0281 63.4464C67.0361 63.1051 67.0442 62.7284 67.0482 62.3243C67.0562 61.9163 67.0602 61.5004 67.0602 61.0727V55.6583C67.0602 55.4033 67.0602 55.1365 67.0482 54.8658C67.0402 54.5951 67.0281 54.34 67.0041 54.0968C66.984 53.8535 66.9439 53.6377 66.8957 53.4455C66.8436 53.2532 66.7754 53.112 66.6871 53.0296C66.4705 52.802 66.2338 52.6529 65.9891 52.5902C65.7404 52.5274 65.4194 52.4646 65.0263 52.4097V52.1978H77.1056L78.5939 55.7289L78.3733 55.8349C77.1898 54.395 76.0826 53.4259 75.0476 52.9237C74.7988 52.8099 74.3415 52.7118 73.6675 52.6255C72.9976 52.5392 72.1792 52.496 71.2164 52.496C70.9115 52.496 70.5946 52.5078 70.2656 52.5274C69.9366 52.547 69.6999 52.5745 69.5555 52.6019C69.5274 52.8295 69.4994 53.3003 69.4793 54.0144C69.4592 54.7285 69.4472 55.5563 69.4472 56.4979V57.8672C69.4472 58.24 69.4472 58.5421 69.4592 58.7775C69.4673 59.0129 69.4713 59.1934 69.4713 59.3228V59.5582H69.9085C70.1252 59.5582 70.3779 59.5504 70.6628 59.5386C70.9476 59.5229 71.2324 59.5072 71.5173 59.4837C71.8021 59.4602 72.0388 59.4288 72.2273 59.3856C72.6646 59.2875 73.0297 59.1502 73.3225 58.9776C73.6154 58.8049 73.8521 58.6009 74.0326 58.3577C74.2131 58.1144 74.3616 57.8319 74.4699 57.5141C74.5782 57.1963 74.6785 56.8314 74.7668 56.4352H75.0275V63.1757H74.7668C74.6504 62.7206 74.4699 62.2497 74.2292 61.7632C73.9885 61.2767 73.7357 60.9158 73.475 60.6725C73.2423 60.4724 72.9615 60.3076 72.6325 60.1821C72.3036 60.0526 71.9224 59.9741 71.4852 59.9467C71.2685 59.931 71.084 59.9231 70.9396 59.9153C70.7951 59.9074 70.6467 59.9035 70.5023 59.9035H69.4953C69.4673 60.1036 69.4512 60.3939 69.4512 60.7824V63.3483C69.4512 63.5759 69.4512 63.7956 69.4632 63.9996C69.4713 64.2076 69.4753 64.3802 69.4753 64.5254C69.4913 64.9805 69.5154 65.4121 69.5515 65.8201C69.5876 66.2281 69.6719 66.5302 69.8042 66.7303C69.9366 66.9304 70.2495 67.0717 70.747 67.158C71.2445 67.2443 71.782 67.2875 72.3677 67.2875C72.6165 67.2875 72.9334 67.2796 73.3185 67.2679C73.7036 67.2522 74.1088 67.2169 74.5341 67.1619C74.9994 67.107 75.4327 66.9932 75.8258 66.8324C76.219 66.6676 76.6001 66.4361 76.9652 66.1379C77.3302 65.8397 77.6833 65.4709 78.0283 65.0354C78.3693 64.5999 78.7223 64.0742 79.0874 63.4621L79.3281 63.5249L78.2329 67.6131L78.2168 67.5974Z" fill="#281822"/>
<path d="M89.1997 67.5975V67.3856C89.2438 67.3856 89.3481 67.3699 89.5166 67.3425C89.6851 67.315 89.8576 67.264 90.0422 67.1934C90.2227 67.1227 90.3832 67.0207 90.5236 66.8952C90.664 66.7657 90.7322 66.6049 90.7322 66.4048C90.7322 66.2753 90.6921 66.0673 90.6118 65.7731C90.5316 65.4827 90.4193 65.1257 90.2708 64.702C90.1224 64.2782 89.9579 63.8153 89.7694 63.3013C89.5808 62.7873 89.3762 62.2537 89.1556 61.6966H83.3346C83.1179 62.238 82.9053 62.7559 82.7007 63.2464C82.4961 63.7407 82.2915 64.2351 82.0869 64.7334C81.782 65.5024 81.6256 66.0477 81.6256 66.3577C81.6256 66.5421 81.6817 66.699 81.8021 66.8167C81.9184 66.9383 82.0669 67.0364 82.2514 67.1149C82.4359 67.1934 82.6325 67.2522 82.8411 67.2875C83.0537 67.3228 83.2543 67.3542 83.4429 67.3856V67.5975H78.7812V67.3621C79.1624 67.3189 79.4833 67.2208 79.7561 67.0639C80.0249 66.907 80.1813 66.801 80.2255 66.7422C80.3258 66.6441 80.4943 66.4087 80.7269 66.0359C80.9596 65.6632 81.2445 65.1179 81.5814 64.3881C81.8863 63.7172 82.2313 62.956 82.6084 62.0968C82.9855 61.2376 83.3787 60.3587 83.7799 59.4563C84.181 58.5539 84.5782 57.6358 84.9713 56.7177C85.3645 55.7957 85.7376 54.9365 86.0866 54.14L85.866 53.6692C86.1307 53.5554 86.3674 53.422 86.576 53.2611C86.7846 53.1003 86.9732 52.9394 87.1337 52.7707C87.2941 52.5981 87.4305 52.4333 87.5389 52.2763C87.6472 52.1194 87.7314 51.9899 87.7916 51.8918H87.9681C88.4214 53.0767 88.8507 54.1988 89.2599 55.2621C89.6691 56.3254 90.0582 57.3494 90.4313 58.3342C90.8044 59.319 91.1655 60.2724 91.5145 61.1905C91.8635 62.1086 92.2125 63.0188 92.5656 63.9173C92.726 64.3606 92.8745 64.7255 93.0149 65.0198C93.1513 65.314 93.3077 65.6436 93.4842 66.0163C93.5123 66.0752 93.5805 66.1733 93.6808 66.3145C93.7811 66.4597 93.9175 66.6049 94.086 66.7539C94.2545 66.903 94.4631 67.0364 94.7078 67.1502C94.9565 67.264 95.2454 67.3307 95.5824 67.3425V67.5975H89.1917H89.1997ZM86.3353 54.6304C86.2471 54.8148 86.1187 55.1091 85.9502 55.5093C85.7817 55.9095 85.5731 56.3921 85.3284 56.9649C85.0797 57.5338 84.8069 58.1812 84.51 58.9031C84.2131 59.625 83.8882 60.4058 83.5351 61.2454H88.9831C88.7343 60.6059 88.4816 59.9624 88.2289 59.319C87.9721 58.6794 87.7274 58.0595 87.4867 57.4671C87.246 56.8747 87.0254 56.3332 86.8288 55.8428C86.6322 55.3484 86.4677 54.9482 86.3353 54.6344V54.6304Z" fill="#281822"/>
<path d="M112.1 52.8138C111.771 53.0139 111.519 53.32 111.346 53.7319C111.246 53.9438 111.178 54.3401 111.15 54.9207C111.122 55.4975 111.089 56.1135 111.061 56.7726C111.033 57.3847 111.009 58.1105 110.985 58.9462C110.961 59.7819 110.953 60.6765 110.953 61.6299V62.9992C110.953 63.4974 110.953 64.0075 110.965 64.5293C110.973 65.0511 110.977 65.5651 110.977 66.0791V67.468C110.977 67.5268 110.957 67.57 110.921 67.6092C110.885 67.6445 110.829 67.6642 110.756 67.6642C110.64 67.6642 110.508 67.5935 110.363 67.4484C109.124 66.0516 107.992 64.7686 106.973 63.5955C105.95 62.4263 104.98 61.3081 104.053 60.2449C103.126 59.1816 102.22 58.1458 101.329 57.1296C100.438 56.1174 99.4996 55.0698 98.5047 53.983V63.0148C98.5047 63.7407 98.5207 64.3998 98.5608 64.9844C98.5969 65.569 98.6892 66.0045 98.8336 66.2909C98.9941 66.6205 99.2468 66.8638 99.5878 67.0286C99.9328 67.1933 100.402 67.311 101 67.3817V67.5935H95.6162V67.3817C95.9652 67.3385 96.3183 67.2483 96.6673 67.1149C97.0163 66.9815 97.2931 66.7539 97.4977 66.44C97.7023 66.1419 97.8347 65.6985 97.8909 65.1139C97.947 64.5293 97.9912 63.8309 98.0232 63.0148C98.0513 62.4028 98.0754 61.6769 98.0874 60.8413C98.1035 60.0056 98.1075 59.111 98.1075 58.1537V55.5446C98.1075 55.2582 98.0995 54.909 98.0874 54.497C98.0433 54.085 97.939 53.7437 97.7825 53.4808C97.6221 53.2179 97.4335 53.01 97.2129 52.8609C96.9922 52.7118 96.7555 52.6059 96.5028 52.5392C96.2461 52.4764 96.0013 52.4293 95.7687 52.4019V52.19H100.21L110.58 64.0428V56.7687C110.58 56.1998 110.572 55.6544 110.56 55.1326C110.544 54.6108 110.48 54.2027 110.363 53.9046C110.215 53.5044 109.958 53.1787 109.585 52.9315C109.212 52.6844 108.678 52.5078 107.976 52.4058V52.1939H113.404V52.4058C112.863 52.4764 112.429 52.6137 112.104 52.8138H112.1Z" fill="#281822"/>
<path d="M130.408 65.2238C130.123 65.7652 129.73 66.2282 129.225 66.6127C128.723 66.9972 128.121 67.2836 127.419 67.468C126.717 67.6524 125.955 67.7466 125.121 67.7466C124.406 67.7466 123.793 67.7034 123.283 67.6171C122.774 67.5308 122.348 67.4288 122.015 67.3071C121.678 67.1855 121.43 67.0757 121.261 66.9736C121.093 66.8756 120.988 66.8246 120.944 66.8246C120.9 66.8246 120.804 66.9109 120.66 67.0835C120.511 67.2561 120.383 67.417 120.266 67.5739H120.07L120.006 63.317H120.222C120.355 63.7015 120.523 64.0781 120.724 64.4391C120.928 64.804 121.149 65.1453 121.39 65.467C121.63 65.7888 121.887 66.0712 122.156 66.3106C122.425 66.5538 122.685 66.7382 122.934 66.8677C123.183 66.9972 123.512 67.1227 123.917 67.2522C124.322 67.3817 124.719 67.4445 125.101 67.4445C126.18 67.4445 127.054 67.1541 127.724 66.5774C128.394 66.0006 128.731 65.2199 128.731 64.2351C128.731 63.8349 128.667 63.4857 128.535 63.1875C128.402 62.8893 128.226 62.6264 127.997 62.4067C127.772 62.187 127.504 61.9987 127.199 61.8378C126.894 61.6809 126.565 61.5396 126.212 61.4102C125.863 61.2807 125.558 61.1748 125.293 61.0884C125.032 61.0021 124.788 60.9197 124.559 60.8413C124.334 60.7628 124.102 60.6843 123.857 60.6059C123.616 60.5274 123.327 60.4254 122.994 60.2959C122.613 60.1547 122.252 59.9585 121.899 59.7074C121.55 59.4563 121.245 59.1659 120.98 58.8285C120.716 58.495 120.507 58.1223 120.347 57.7143C120.186 57.3062 120.106 56.8786 120.106 56.4195C120.106 55.6505 120.25 54.9874 120.535 54.4303C120.82 53.8732 121.209 53.4102 121.695 53.0414C122.18 52.6687 122.742 52.398 123.375 52.2175C124.009 52.037 124.679 51.9507 125.377 51.9507C126.035 51.9507 126.597 52.0017 127.062 52.1115C127.528 52.2214 127.913 52.3352 128.21 52.4647C128.51 52.5941 128.735 52.7118 128.888 52.8178C129.04 52.9237 129.124 52.9786 129.14 52.9786C129.184 52.9786 129.277 52.8923 129.413 52.7236C129.554 52.551 129.678 52.3823 129.798 52.2096H130.039V56.1684H129.798C129.622 55.6976 129.397 55.2307 129.12 54.7677C128.843 54.3048 128.523 53.8889 128.157 53.5279C127.792 53.163 127.375 52.8688 126.91 52.6412C126.444 52.4137 125.923 52.2999 125.357 52.2999C124.904 52.2999 124.479 52.3626 124.078 52.4921C123.676 52.6216 123.327 52.8138 123.026 53.0689C122.73 53.3239 122.493 53.6417 122.328 54.0223C122.16 54.3989 122.076 54.8305 122.076 55.317C122.076 56.0742 122.308 56.6785 122.774 57.1336C123.239 57.5887 123.845 57.9536 124.587 58.2243C124.876 58.3381 125.149 58.4362 125.405 58.5225C125.662 58.6088 125.911 58.6912 126.16 58.7697C126.408 58.8481 126.657 58.9305 126.914 59.0168C127.167 59.1032 127.435 59.1973 127.712 59.2954C128.703 59.6525 129.469 60.1703 130.015 60.8491C130.56 61.5279 130.833 62.3714 130.833 63.3837C130.833 64.0664 130.693 64.6823 130.408 65.2238Z" fill="#281822"/>
<path d="M143.743 67.5975V67.3856C144.281 67.3425 144.734 67.2444 145.099 67.0953C145.464 66.9462 145.705 66.7775 145.821 66.5931C145.849 66.5499 145.873 66.4636 145.897 66.3381C145.918 66.2086 145.938 66.0595 145.954 65.8908C145.97 65.7182 145.978 65.5416 145.986 65.3572C145.994 65.1728 145.998 64.9923 145.998 64.8236C146.014 64.3528 146.018 63.8663 146.018 63.368V59.986H137.377V64.5882C137.377 65.0002 137.385 65.4003 137.397 65.7848C137.413 66.1693 137.477 66.4401 137.593 66.597C137.77 66.8403 138.014 67.0247 138.339 67.1541C138.66 67.2836 138.973 67.3621 139.278 67.3895V67.6014H132.823V67.3895C133.188 67.3307 133.537 67.2365 133.874 67.0992C134.211 66.9619 134.464 66.7971 134.641 66.597C134.697 66.5264 134.745 66.4087 134.781 66.2439C134.817 66.0791 134.845 65.8908 134.869 65.675C134.889 65.4592 134.909 65.2277 134.925 64.9805C134.941 64.7334 134.945 64.494 134.945 64.2625C134.945 64.0624 134.945 63.7917 134.957 63.4504C134.966 63.109 134.974 62.7324 134.978 62.3283C134.986 61.9202 134.99 61.5043 134.99 61.0767V54.8933C134.99 54.6383 134.978 54.3989 134.957 54.1753C134.937 53.9556 134.905 53.7555 134.861 53.575C134.817 53.3945 134.753 53.2572 134.665 53.1591C134.46 52.9159 134.207 52.7432 133.91 52.6334C133.61 52.5274 133.273 52.4529 132.891 52.4097V52.1979H139.411V52.4097C139.206 52.4372 138.989 52.4804 138.753 52.5392C138.52 52.5942 138.307 52.6844 138.119 52.806C137.93 52.9276 137.77 53.0964 137.637 53.3082C137.505 53.5201 137.433 53.7947 137.421 54.1204C137.405 54.6187 137.397 55.1562 137.389 55.7368C137.381 56.3136 137.377 56.8668 137.377 57.3965V59.5583H146.018V56.1135C146.018 55.7408 146.01 55.321 145.998 54.8501C145.982 54.5794 145.966 54.2969 145.942 54.0066C145.922 53.7163 145.849 53.4769 145.733 53.2886C145.472 52.9041 145.171 52.6648 144.834 52.5706C144.497 52.4804 144.164 52.4254 143.827 52.4097V52.1979H150.415V52.4097C150.066 52.4529 149.721 52.5471 149.388 52.7001C149.051 52.8492 148.802 53.0689 148.646 53.3514C148.585 53.4495 148.541 53.5907 148.513 53.7673C148.485 53.9477 148.461 54.1439 148.449 54.3676C148.433 54.5873 148.429 54.8148 148.429 55.0424V62.0379C148.429 62.4381 148.429 62.8501 148.441 63.2778C148.449 63.7054 148.453 64.1762 148.453 64.6902C148.453 65.1022 148.465 65.4867 148.485 65.8359C148.505 66.185 148.561 66.4244 148.65 66.5539C148.838 66.8403 149.095 67.0404 149.416 67.1541C149.737 67.2679 150.086 67.3464 150.467 67.3895V67.6014H143.751L143.743 67.5975Z" fill="#281822"/>
<path d="M167.942 62.956C167.505 63.9251 166.911 64.7686 166.157 65.4827C165.407 66.1968 164.532 66.746 163.534 67.1305C162.535 67.515 161.476 67.7073 160.352 67.7073C159.229 67.7073 158.194 67.519 157.203 67.1384C156.212 66.7617 155.342 66.2242 154.599 65.5337C153.853 64.8432 153.268 64.0153 152.838 63.0501C152.409 62.085 152.192 61.0295 152.192 59.8721C152.192 58.648 152.417 57.5416 152.87 56.5646C153.32 55.5877 153.929 54.7598 154.696 54.0811C155.462 53.4023 156.357 52.8844 157.388 52.5195C158.415 52.1547 159.498 51.9742 160.637 51.9742C161.877 51.9742 162.988 52.19 163.975 52.6176C164.958 53.0453 165.796 53.6181 166.478 54.34C167.16 55.062 167.69 55.8937 168.055 56.8314C168.42 57.7731 168.6 58.7579 168.6 59.7858C168.6 60.9275 168.384 61.9829 167.942 62.952V62.956ZM165.547 57.1767C165.323 56.2939 164.978 55.4896 164.52 54.7716C164.063 54.0536 163.489 53.4651 162.803 53.0178C162.117 52.5666 161.307 52.343 160.376 52.343C159.446 52.343 158.607 52.5666 157.917 53.0178C157.223 53.4651 156.657 54.0497 156.212 54.7638C155.767 55.4778 155.438 56.2861 155.225 57.1924C155.013 58.0987 154.908 59.0129 154.908 59.9427C154.908 60.8726 155.025 61.8456 155.257 62.7441C155.49 63.6426 155.839 64.4351 156.296 65.1178C156.754 65.8005 157.331 66.3498 158.025 66.7657C158.719 67.1776 159.522 67.3856 160.445 67.3856C161.367 67.3856 162.162 67.158 162.84 66.699C163.517 66.2399 164.083 65.6553 164.536 64.9334C164.99 64.2115 165.327 63.4032 165.555 62.5048C165.78 61.6063 165.896 60.7078 165.896 59.8093C165.896 58.9109 165.784 58.0595 165.555 57.1767H165.547Z" fill="#281822"/>
<path d="M183.519 67.5975H170.128V67.3856C170.493 67.3268 170.83 67.2365 171.147 67.1071C171.46 66.9776 171.721 66.801 171.925 66.5695C171.998 66.4832 172.058 66.3577 172.102 66.1968C172.146 66.036 172.186 65.8437 172.222 65.6279C172.258 65.416 172.282 65.1885 172.299 64.9531C172.315 64.7177 172.319 64.4862 172.319 64.2586C172.319 64.0585 172.319 63.7878 172.331 63.4465C172.339 63.1051 172.347 62.7285 172.351 62.3244C172.359 61.9163 172.363 61.5004 172.363 61.0728V55.6584C172.363 55.4034 172.363 55.1366 172.351 54.8658C172.343 54.5951 172.331 54.3401 172.307 54.0968C172.286 53.8536 172.246 53.6378 172.198 53.4455C172.146 53.2533 172.078 53.112 171.99 53.0297C171.773 52.8021 171.536 52.653 171.292 52.5902C171.043 52.5274 170.722 52.4647 170.329 52.4097V52.1979H182.408L183.896 55.729L183.676 55.8349C182.492 54.395 181.385 53.4259 180.35 52.9237C180.101 52.8099 179.644 52.7119 178.97 52.6255C178.3 52.5392 177.482 52.4961 176.519 52.4961C176.214 52.4961 175.897 52.5078 175.568 52.5275C175.239 52.5471 175.002 52.5745 174.858 52.602C174.83 52.8296 174.802 53.3004 174.782 54.0144C174.762 54.7285 174.75 55.5564 174.75 56.498V57.8673C174.75 58.24 174.75 58.5421 174.762 58.7775C174.77 59.0129 174.774 59.1934 174.774 59.3229V59.5583H175.211C175.428 59.5583 175.68 59.5505 175.965 59.5387C176.25 59.523 176.535 59.5073 176.82 59.4838C177.105 59.4602 177.341 59.4288 177.53 59.3857C177.967 59.2876 178.332 59.1503 178.625 58.9776C178.918 58.805 179.155 58.601 179.335 58.3577C179.516 58.1145 179.664 57.832 179.772 57.5142C179.881 57.1964 179.981 56.8315 180.069 56.4352H180.33V63.1757H180.069C179.953 62.7206 179.772 62.2498 179.532 61.7633C179.291 61.2768 179.038 60.9158 178.777 60.6726C178.545 60.4725 178.264 60.3077 177.935 60.1821C177.606 60.0527 177.225 59.9742 176.788 59.9467C176.571 59.931 176.386 59.9232 176.242 59.9153C176.098 59.9075 175.949 59.9036 175.805 59.9036H174.798C174.77 60.1037 174.754 60.394 174.754 60.7824V63.3484C174.754 63.5759 174.754 63.7956 174.766 63.9997C174.774 64.2076 174.778 64.3802 174.778 64.5254C174.794 64.9805 174.818 65.4121 174.854 65.8202C174.89 66.2282 174.974 66.5303 175.107 66.7304C175.239 66.9305 175.552 67.0717 176.049 67.1581C176.547 67.2444 177.085 67.2875 177.67 67.2875C177.919 67.2875 178.236 67.2797 178.621 67.2679C179.006 67.2522 179.411 67.2169 179.837 67.162C180.302 67.1071 180.735 66.9933 181.128 66.8324C181.521 66.6676 181.903 66.4361 182.268 66.138C182.633 65.8398 182.986 65.471 183.331 65.0355C183.672 64.6 184.025 64.0742 184.39 63.4622L184.631 63.5249L183.535 67.6132L183.519 67.5975Z" fill="#281822"/>
<path d="M196.575 65.2237C196.29 65.7652 195.897 66.2281 195.391 66.6126C194.89 66.9971 194.288 67.2835 193.586 67.4679C192.884 67.6523 192.122 67.7465 191.287 67.7465C190.573 67.7465 189.959 67.7033 189.45 67.617C188.94 67.5307 188.515 67.4287 188.182 67.3071C187.849 67.1854 187.596 67.0756 187.428 66.9736C187.259 66.8716 187.155 66.8245 187.111 66.8245C187.067 66.8245 186.97 66.9108 186.826 67.0834C186.682 67.2561 186.549 67.4169 186.433 67.5739H186.236L186.172 63.3169H186.393C186.525 63.7014 186.69 64.0781 186.894 64.439C187.099 64.8039 187.319 65.1452 187.56 65.467C187.801 65.7887 188.054 66.0712 188.326 66.3105C188.595 66.5538 188.856 66.7382 189.105 66.8676C189.353 66.9971 189.682 67.1227 190.092 67.2521C190.501 67.3816 190.894 67.4444 191.275 67.4444C192.354 67.4444 193.229 67.1541 193.899 66.5773C194.569 66.0006 194.906 65.2198 194.906 64.235C194.906 63.8348 194.841 63.4856 194.709 63.1874C194.577 62.8893 194.4 62.6264 194.172 62.4067C193.947 62.1869 193.678 61.9986 193.373 61.8378C193.068 61.6808 192.739 61.5396 192.39 61.4101C192.041 61.2806 191.732 61.1747 191.472 61.0884C191.211 61.0021 190.966 60.9197 190.737 60.8412C190.513 60.7627 190.276 60.6843 190.035 60.6058C189.795 60.5273 189.506 60.4253 189.173 60.2958C188.792 60.1546 188.431 59.9584 188.078 59.7073C187.725 59.4562 187.42 59.1659 187.159 58.8285C186.898 58.495 186.686 58.1222 186.525 57.7142C186.365 57.3062 186.284 56.8785 186.284 56.4195C186.284 55.6505 186.429 54.9874 186.718 54.4303C187.007 53.8731 187.392 53.4102 187.877 53.0413C188.363 52.6686 188.924 52.3979 189.558 52.2174C190.192 52.0369 190.858 51.9506 191.56 51.9506C192.214 51.9506 192.779 52.0016 193.245 52.1115C193.71 52.2174 194.095 52.3351 194.392 52.4646C194.689 52.5941 194.918 52.7118 195.07 52.8177C195.223 52.9236 195.307 52.9786 195.323 52.9786C195.367 52.9786 195.455 52.8923 195.596 52.7235C195.732 52.5509 195.86 52.3822 195.977 52.2096H196.217V56.1684H195.977C195.8 55.6975 195.576 55.2306 195.299 54.7677C195.022 54.3047 194.701 53.8888 194.336 53.5279C193.971 53.163 193.554 52.8687 193.088 52.6412C192.623 52.4136 192.105 52.2998 191.536 52.2998C191.082 52.2998 190.657 52.3626 190.256 52.4921C189.855 52.6215 189.506 52.8138 189.205 53.0688C188.904 53.3238 188.671 53.6416 188.503 54.0222C188.334 54.3989 188.25 54.8304 188.25 55.317C188.25 56.0742 188.483 56.6784 188.948 57.1335C189.414 57.5886 190.015 57.9535 190.762 58.2242C191.05 58.338 191.323 58.4361 191.58 58.5224C191.837 58.6087 192.085 58.6911 192.334 58.7696C192.583 58.8481 192.832 58.9305 193.088 59.0168C193.341 59.1031 193.61 59.1973 193.887 59.2954C194.874 59.6524 195.644 60.1703 196.189 60.849C196.735 61.5278 197.008 62.3714 197.008 63.3836C197.008 64.0663 196.863 64.6823 196.583 65.2237H196.575Z" fill="#281822"/>
<path d="M104.831 19.5742C105.566 19.5075 105.806 20.5747 105.144 20.8297C104.177 21.2064 103.82 19.6645 104.831 19.5742Z" fill="#CE9D61"/>
<path d="M102.019 21.4418C101.738 21.1867 101.979 20.6767 102.388 20.8572C102.885 21.0769 102.364 21.7556 102.019 21.4418Z" fill="#CE9D61"/>
<path d="M102.892 19.9901C102.656 20.2177 102.114 20.0215 102.294 19.6291C102.523 19.1309 103.221 19.6762 102.892 19.9901Z" fill="#CE9D61"/>
<path d="M93.2974 20.9121L79.6735 24.5413C79.5732 24.2 79.481 23.8586 79.3967 23.5094L93.2934 20.9121H93.2974Z" fill="#281822"/>
<path d="M93.2738 20.6374L79.2247 22.6776C79.1605 22.3441 79.1083 22.0067 79.0642 21.6653L93.2778 20.6374H93.2738Z" fill="#281822"/>
<path d="M93.2727 20.3197L78.9709 20.8454C78.9388 20.5002 78.9188 20.151 78.9067 19.7979L93.2727 20.3197Z" fill="#281822"/>
<path d="M93.2733 19.8136L79.0076 17.1574C79.0477 16.7807 79.0998 16.408 79.16 16.0392L93.2733 19.8136Z" fill="#281822"/>
<path d="M93.2723 19.4957L79.3516 15.0583C79.4478 14.6306 79.5562 14.2069 79.6845 13.787L93.2723 19.4957Z" fill="#281822"/>
<path d="M93.3382 21.2064L80.4044 26.5619C80.256 26.2127 80.1156 25.8596 79.9912 25.4986L93.3422 21.2064H93.3382Z" fill="#281822"/>
<path d="M93.2727 20.0489L78.8987 19.0484C78.8987 18.7032 78.9107 18.3658 78.9348 18.0244L93.2727 20.0489Z" fill="#281822"/>
<path d="M94.9529 19.1819V19.8136C94.1866 19.9901 93.962 19.0249 94.9529 19.1819Z" fill="#CE9D61"/>
<path d="M94.9529 20.9318V21.5634C94.1866 21.74 93.962 20.7748 94.9529 20.9318Z" fill="#CE9D61"/>
<path d="M96.5703 19.1897V21.583H95.2144V19.1818C95.5273 19.174 95.8442 19.1897 96.1571 19.1818C96.3216 19.1818 96.4419 19.1818 96.5743 19.1858L96.5703 19.1897Z" fill="#CE9D61"/>
<path d="M101.793 22.6109C101.833 22.2814 101.363 22.199 101.42 21.8812C101.749 20.9906 101.853 19.841 102.21 18.9778C102.483 18.3226 103.437 18.5462 103.353 19.2681L101.672 25.6634C101.636 25.8635 100.381 26.6286 100.381 26.6286C100.381 26.6286 100.244 26.4991 100.216 26.4599C100.023 26.1578 100.786 25.7419 100.942 25.5535C101.359 25.0474 101.492 23.2819 101.789 22.6149L101.793 22.6109Z" fill="#CE9D61"/>
<path d="M104.426 7.25059L103.503 6.9524C103.76 6.5169 103.92 6.39135 104.185 6.4502C104.739 6.5679 104.43 7.25451 104.43 7.25451L104.426 7.25059Z" fill="#CE9D61"/>
<path d="M98.5156 13.5948L100.457 7.48993L106.852 9.38104C106.178 11.2211 105.721 13.1515 105.059 14.9916C104.826 15.639 104.87 15.69 104.224 16.0078C103.643 16.2942 102.243 16.6708 101.954 17.2005C101.825 17.4359 101.488 18.8052 101.412 18.8523L99.1575 18.8915C99.0612 18.8366 99.1936 18.6012 99.2217 18.511C99.3982 17.9734 99.9839 16.7964 99.9318 16.306C99.9197 16.1765 99.8515 16.047 99.7954 15.9293C99.5025 15.3329 98.4755 14.1951 98.5196 13.587L98.5156 13.5948Z" fill="#CE9D61"/>
<path d="M106.271 19.1819H106.953C107.106 19.5625 106.821 19.9391 106.464 19.9744L106.271 19.1819Z" fill="#CE9D61"/>
<path d="M106.27 30.5952L107.045 30.5638L106.888 31.1406C106.495 31.3328 106.158 30.6698 106.266 30.5952H106.27Z" fill="#CE9D61"/>
<path d="M100.598 6.35995L107.49 8.52178C107.57 8.54532 107.634 8.61595 107.634 8.69834C107.634 8.87882 107.466 9.18877 107.426 9.33394C107.117 9.23585 106.928 9.18093 106.928 9.18093C106.928 9.18093 106.988 8.76896 106.663 8.64733C106.226 8.47863 106.058 8.89844 106.058 8.89844L105.508 8.7415C105.508 8.7415 105.612 8.33738 105.195 8.19221C104.838 8.07058 104.626 8.43547 104.626 8.43547L104.084 8.30207C104.084 8.30207 104.18 7.89403 103.771 7.74886C103.362 7.60369 103.189 7.97642 103.189 7.97642L102.68 7.79986C102.68 7.79986 102.672 7.64685 102.604 7.50168C102.443 7.15642 101.95 7.29374 101.837 7.61546L101.232 7.41537C101.372 6.85823 100.67 6.67775 100.413 7.17211L100 7.04264C100.128 6.70522 100.205 6.25402 100.598 6.36388V6.35995Z" fill="#CE9D61"/>
<path d="M108.277 21.7752V20.9513C109.119 20.9866 109.047 21.6457 108.277 21.7752Z" fill="#CE9D61"/>
<path d="M98.5125 19.1818L101.802 19.1112C101.967 18.6953 102.051 17.6635 102.564 17.5497C102.925 17.4712 104.787 17.4869 105.204 17.534C105.653 17.585 106.127 18.0833 105.818 18.4207C105.629 18.6247 105.441 18.2638 105.268 18.2324C105.096 18.201 104.498 18.2127 104.325 18.2598C104.097 18.3187 104.105 18.6836 104.169 18.864C104.309 19.0995 105.665 19.072 105.97 19.174L106.339 20.7591C106.636 20.814 107.759 20.6688 107.924 20.8219C108.068 20.9592 108.068 21.7596 107.924 21.9008C107.707 22.1087 106.688 21.7988 106.668 22.3716L108.53 31.0935C108.494 31.219 108.193 31.219 107.984 31.1955C107.86 31.1798 107.751 31.1013 107.715 30.9836C107.647 30.7835 107.595 30.4854 107.31 30.403C106.853 30.2656 105.918 30.5521 105.589 30.1911C105.26 29.8341 105.064 27.8292 104.851 27.276H103.912C103.812 27.276 103.74 26.9582 103.916 26.8365C104.249 26.609 105.413 26.8718 105.409 26.2441C105.284 25.2985 105.188 23.8625 104.811 23.0425C104.618 22.6227 104.37 22.7993 104.057 22.7051C103.7 22.5992 103.647 21.893 103.623 21.5791H102.978C102.897 21.4967 103.499 19.6762 103.543 19.3819C103.712 18.2991 102.424 17.997 102.039 18.9857C101.734 19.7625 101.601 20.7669 101.361 21.5791H98.5165V19.1779L98.5125 19.1818Z" fill="#CE9D61"/>
<path d="M118.126 19.1818C118.126 29.7752 109.344 38.3637 98.5124 38.3637C90.6053 38.3637 83.7894 33.785 80.6883 27.1896L93.4055 21.6065L82.5738 30.0695C82.5738 30.0695 82.5779 30.0969 82.61 30.1322C87.753 36.0645 96.0091 39.3406 103.72 36.7001C106.355 35.7977 108.734 34.2872 110.696 32.3608C123.293 19.9822 112.385 -0.976943 94.7414 1.61255C89.454 2.38939 84.3671 5.46931 81.6231 9.94599C81.587 9.91853 81.599 9.98523 81.6231 9.94599L93.213 18.9935L80.0344 12.7513C82.7303 5.32022 89.9875 0 98.5124 0C109.344 0 118.126 8.58847 118.126 19.1818Z" fill="#281822"/>
</g>
<defs>
<clipPath id="clip0_1089_812">
<rect width="197" height="81" fill="white"/>
</clipPath>
</defs>
</svg>
