<?xml version="1.0" encoding="UTF-8"?>
<svg id="Layer_1" xmlns="http://www.w3.org/2000/svg" width="518.53" height="235.88" version="1.1" viewBox="0 0 518.53 235.88">
  <!-- Generator: Adobe Illustrator 29.1.0, SVG Export Plug-In . SVG Version: 2.1.0 Build 142)  -->
  <defs>
    <style>
      .st0 {
        fill: #281822;
      }

      .st1 {
        fill: #ce9d61;
      }
    </style>
  </defs>
  <g>
    <g>
      <path class="st1" d="M43.53,216.39h-.99v-9.95h5.46c.84,0,1.55.13,2.13.38.58.26,1.01.61,1.29,1.07.28.46.43,1,.43,1.63s-.14,1.17-.43,1.63-.72.82-1.29,1.08c-.58.26-1.29.38-2.13.38h-4.62v-.95h4.62c.93,0,1.63-.2,2.1-.58.47-.39.71-.91.71-1.56s-.24-1.16-.71-1.55c-.47-.39-1.17-.58-2.1-.58h-4.46v8.99Z"/>
      <path class="st1" d="M60.43,216.54c-.94,0-1.75-.17-2.45-.53-.7-.35-1.23-.83-1.61-1.44s-.56-1.3-.56-2.08.18-1.46.54-2.07c.36-.62.86-1.1,1.5-1.45.64-.35,1.37-.53,2.18-.53s1.51.17,2.13.52,1.11.82,1.46,1.43c.35.61.52,1.31.52,2.1v.46h-7.33c.07.54.25,1.01.56,1.42.31.41.72.72,1.25.95.53.23,1.13.34,1.81.34.63,0,1.23-.09,1.8-.28.56-.19,1-.4,1.3-.64v.98c-.3.21-.74.4-1.3.57-.56.17-1.16.25-1.8.25ZM63.15,212.03c-.05-.49-.2-.95-.46-1.36-.25-.41-.61-.74-1.06-.99-.45-.25-.97-.37-1.56-.37-.62,0-1.16.12-1.64.36s-.86.56-1.14.97-.45.88-.48,1.39h6.34Z"/>
      <path class="st1" d="M73.08,216.54c-.88,0-1.67-.17-2.35-.53-.69-.35-1.22-.83-1.61-1.45-.38-.62-.58-1.31-.58-2.07s.19-1.46.58-2.07c.38-.62.93-1.1,1.63-1.45.7-.35,1.52-.53,2.44-.53.67,0,1.29.08,1.85.24.56.16,1.04.36,1.43.58v.99c-.4-.26-.88-.47-1.43-.66-.56-.18-1.17-.28-1.85-.28-.75,0-1.4.13-1.95.4-.55.27-.97.64-1.26,1.12-.29.48-.44,1.03-.44,1.65s.15,1.16.44,1.64c.29.48.71.85,1.24,1.12s1.15.4,1.85.4,1.29-.08,1.85-.25c.56-.17.98-.36,1.26-.57v.95c-.28.2-.71.38-1.27.53-.56.15-1.18.23-1.84.23Z"/>
      <path class="st1" d="M83.7,216.39v-6.9h-3.61v-.91h8.21v.91h-3.61v6.9h-.99Z"/>
      <path class="st1" d="M94.97,216.54c-1,0-1.75-.21-2.27-.62-.52-.41-.77-.97-.77-1.67,0-.74.31-1.33.92-1.77.61-.44,1.57-.66,2.88-.66.87,0,1.53-.04,1.99-.13.45-.09.76-.21.91-.36.15-.16.23-.37.23-.63s-.09-.49-.27-.69-.48-.37-.9-.5c-.42-.13-.97-.19-1.64-.19-.71,0-1.4.1-2.07.29-.67.2-1.2.42-1.58.66v-.98c.32-.22.82-.41,1.49-.59.67-.18,1.41-.26,2.2-.26.89,0,1.62.1,2.17.3s.96.47,1.21.82.38.76.38,1.22v5.61h-1v-1.32c-.21.23-.5.46-.88.68-.38.23-.83.42-1.34.56-.52.15-1.07.22-1.66.22ZM95.2,215.65c.58,0,1.11-.08,1.61-.23.49-.16.91-.35,1.26-.58s.61-.47.79-.7v-2.13c-.05.1-.2.19-.45.29s-.61.18-1.07.24c-.46.06-1.01.09-1.66.09-.96,0-1.66.15-2.1.44-.44.29-.66.67-.66,1.14s.19.8.56,1.06c.37.26.95.39,1.71.39Z"/>
      <path class="st1" d="M104.89,216.39v-7.81h4.38c.69,0,1.27.1,1.74.28.47.19.82.44,1.04.76.23.32.34.67.34,1.07,0,.33-.08.64-.25.92-.17.28-.4.51-.7.69-.3.18-.65.28-1.05.31v.07c.66.05,1.16.23,1.5.55.34.32.5.71.5,1.19,0,.58-.24,1.05-.72,1.42-.48.37-1.19.55-2.13.55h-4.65ZM109.48,215.48c.65,0,1.14-.11,1.45-.33s.47-.5.47-.85-.15-.65-.46-.87c-.31-.22-.79-.33-1.46-.33h-3.76v-.91h3.51c.75,0,1.3-.12,1.65-.37.35-.25.53-.58.53-.99s-.18-.73-.53-.98c-.35-.25-.9-.37-1.65-.37h-3.34v5.99h3.59Z"/>
      <path class="st1" d="M117.29,219.09v-10.51h.99v1.21h.07c.29-.34.73-.65,1.32-.93.59-.28,1.24-.42,1.95-.42.85,0,1.61.18,2.27.53.66.35,1.17.83,1.53,1.44.36.61.54,1.3.54,2.08s-.18,1.47-.54,2.08c-.36.61-.87,1.09-1.53,1.44-.66.35-1.41.53-2.27.53-.71,0-1.36-.14-1.95-.42-.59-.28-1.03-.59-1.32-.93h-.07v3.91h-.99ZM121.44,215.65c.72,0,1.34-.13,1.88-.4s.94-.64,1.22-1.12c.28-.48.43-1.03.43-1.64s-.14-1.16-.43-1.64-.69-.85-1.22-1.12c-.53-.27-1.16-.41-1.88-.41-.48,0-.94.08-1.36.24-.42.16-.78.37-1.09.61-.3.25-.54.49-.71.74v3.15c.17.25.41.49.71.74.3.25.67.45,1.09.61.42.16.87.24,1.36.24Z"/>
      <path class="st1" d="M133.4,216.54c-1,0-1.75-.21-2.27-.62-.52-.41-.77-.97-.77-1.67,0-.74.31-1.33.92-1.77.61-.44,1.57-.66,2.88-.66.87,0,1.53-.04,1.99-.13.45-.09.76-.21.91-.36.15-.16.23-.37.23-.63s-.09-.49-.27-.69-.48-.37-.9-.5c-.42-.13-.97-.19-1.64-.19-.71,0-1.4.1-2.07.29-.67.2-1.2.42-1.58.66v-.98c.32-.22.82-.41,1.49-.59.67-.18,1.41-.26,2.2-.26.89,0,1.62.1,2.17.3s.96.47,1.21.82.38.76.38,1.22v5.61h-1v-1.32c-.21.23-.5.46-.88.68-.38.23-.83.42-1.34.56-.52.15-1.07.22-1.66.22ZM133.63,215.65c.58,0,1.11-.08,1.61-.23.49-.16.91-.35,1.26-.58s.61-.47.79-.7v-2.13c-.05.1-.2.19-.45.29s-.61.18-1.07.24c-.46.06-1.01.09-1.66.09-.96,0-1.66.15-2.1.44-.44.29-.66.67-.66,1.14s.19.8.56,1.06c.37.26.95.39,1.71.39Z"/>
      <path class="st1" d="M150.94,218.67v-2.27h-7.63v-7.81h.99v6.9h5.41v-6.9h.99v6.9h1.22v3.18h-1Z"/>
      <path class="st1" d="M156.2,216.39v-7.81h.99v6.76h.07l5.14-6.76h1.35v7.81h-.99v-6.76h-.07l-5.14,6.76h-1.35Z"/>
      <path class="st1" d="M168.59,216.39l2.77-2.81v-.03c-.37,0-.78-.07-1.22-.22-.45-.15-.84-.4-1.18-.77-.34-.36-.51-.85-.51-1.47,0-.51.12-.96.35-1.33.23-.37.59-.66,1.07-.87s1.08-.31,1.8-.31h4.19v7.81h-.99v-2.81h-2.26l-2.77,2.81h-1.24ZM171.66,212.67h3.2v-3.18h-3.2c-.75,0-1.3.14-1.67.43-.37.29-.55.68-.55,1.17s.18.87.55,1.15c.37.28.92.43,1.66.43Z"/>
      <path class="st1" d="M188.07,216.39v-7.81h.99v6.76h.07l5.14-6.76h1.35v7.81h-.99v-6.76h-.07l-5.14,6.76h-1.35Z"/>
      <path class="st1" d="M211.31,213.8c-1.15,0-2.05-.28-2.7-.83-.65-.55-.98-1.35-.98-2.38v-2h.99v2.04c0,.71.25,1.27.74,1.66.49.4,1.16.6,1.99.6.47,0,.94-.04,1.39-.11.45-.07.91-.19,1.38-.36v.91c-.5.16-.98.28-1.43.35-.46.08-.91.12-1.38.12ZM213.94,216.39v-7.81h.99v7.81h-.99Z"/>
      <path class="st1" d="M220.05,216.39v-7.81h.99v6.76h.07l5.14-6.76h1.35v7.81h-.99v-6.76h-.07l-5.14,6.76h-1.35Z"/>
      <path class="st1" d="M236.9,216.54c-.88,0-1.67-.17-2.35-.53-.69-.35-1.22-.83-1.61-1.45-.38-.62-.58-1.31-.58-2.07s.19-1.46.58-2.07c.38-.62.93-1.1,1.63-1.45.7-.35,1.52-.53,2.44-.53.67,0,1.29.08,1.85.24.56.16,1.04.36,1.43.58v.99c-.4-.26-.88-.47-1.43-.66-.56-.18-1.17-.28-1.85-.28-.75,0-1.4.13-1.95.4-.55.27-.97.64-1.26,1.12-.29.48-.44,1.03-.44,1.65s.15,1.16.44,1.64c.29.48.71.85,1.24,1.12s1.15.4,1.85.4,1.29-.08,1.85-.25c.56-.17.98-.36,1.26-.57v.95c-.28.2-.71.38-1.27.53-.56.15-1.18.23-1.84.23Z"/>
      <path class="st1" d="M247.52,216.39v-6.9h-3.61v-.91h8.21v.91h-3.61v6.9h-.99Z"/>
      <path class="st1" d="M256.18,216.39v-7.81h.99v3.55l4.9-3.55h1.46l-5.31,3.84,5.31,3.98h-1.46l-4.9-3.7v3.7h-.99Z"/>
      <path class="st1" d="M270.06,216.54c-1,0-1.75-.21-2.27-.62-.52-.41-.77-.97-.77-1.67,0-.74.31-1.33.92-1.77.61-.44,1.57-.66,2.88-.66.87,0,1.53-.04,1.99-.13.45-.09.76-.21.91-.36.15-.16.23-.37.23-.63s-.09-.49-.27-.69-.48-.37-.9-.5c-.42-.13-.97-.19-1.64-.19-.71,0-1.4.1-2.07.29-.67.2-1.2.42-1.58.66v-.98c.32-.22.82-.41,1.49-.59.67-.18,1.41-.26,2.2-.26.89,0,1.62.1,2.17.3s.96.47,1.21.82.38.76.38,1.22v5.61h-1v-1.32c-.21.23-.5.46-.88.68-.38.23-.83.42-1.34.56-.52.15-1.07.22-1.66.22ZM270.28,215.65c.58,0,1.11-.08,1.61-.23.49-.16.91-.35,1.26-.58s.61-.47.79-.7v-2.13c-.05.1-.2.19-.45.29s-.61.18-1.07.24c-.46.06-1.01.09-1.66.09-.96,0-1.66.15-2.1.44-.44.29-.66.67-.66,1.14s.19.8.56,1.06c.37.26.95.39,1.71.39Z"/>
      <path class="st1" d="M287.08,216.39v-7.81h.99v3.55l4.9-3.55h1.46l-5.31,3.84,5.31,3.98h-1.46l-4.9-3.7v3.7h-.99Z"/>
      <path class="st1" d="M302.39,216.54c-.96,0-1.79-.17-2.49-.53-.71-.35-1.25-.83-1.63-1.45-.38-.62-.57-1.31-.57-2.07s.19-1.46.57-2.07c.38-.62.92-1.1,1.63-1.45.71-.35,1.54-.53,2.49-.53s1.79.18,2.49.53c.71.35,1.25.83,1.63,1.45.38.62.57,1.31.57,2.07s-.19,1.46-.57,2.07c-.38.62-.92,1.1-1.63,1.45-.71.35-1.54.53-2.49.53ZM302.39,215.65c.78,0,1.44-.13,2-.4s.98-.64,1.26-1.12.43-1.03.43-1.66-.14-1.18-.43-1.65-.71-.85-1.26-1.12-1.22-.4-2-.4-1.44.13-2,.4-.98.64-1.26,1.12-.43,1.03-.43,1.65.14,1.18.43,1.66.71.85,1.26,1.12,1.22.4,2,.4Z"/>
      <path class="st1" d="M310.39,216.39l4.9-3.99-4.94-3.82h1.42l4.56,3.54v-3.54h.99v3.54l4.56-3.54h1.42l-4.94,3.82,4.9,3.99h-1.42l-4.52-3.71v3.71h-.99v-3.71l-4.52,3.71h-1.42Z"/>
      <path class="st1" d="M329.83,216.54c-1,0-1.75-.21-2.27-.62-.52-.41-.77-.97-.77-1.67,0-.74.31-1.33.92-1.77.61-.44,1.57-.66,2.88-.66.87,0,1.53-.04,1.99-.13.45-.09.76-.21.91-.36.15-.16.23-.37.23-.63s-.09-.49-.27-.69-.48-.37-.9-.5c-.42-.13-.97-.19-1.64-.19-.71,0-1.4.1-2.07.29-.67.2-1.2.42-1.58.66v-.98c.32-.22.82-.41,1.49-.59.67-.18,1.41-.26,2.2-.26.89,0,1.62.1,2.17.3s.96.47,1.21.82.38.76.38,1.22v5.61h-1v-1.32c-.21.23-.5.46-.88.68-.38.23-.83.42-1.34.56-.52.15-1.07.22-1.66.22ZM330.05,215.65c.58,0,1.11-.08,1.61-.23.49-.16.91-.35,1.26-.58s.61-.47.79-.7v-2.13c-.05.1-.2.19-.45.29s-.61.18-1.07.24c-.46.06-1.01.09-1.66.09-.96,0-1.66.15-2.1.44-.44.29-.66.67-.66,1.14s.19.8.56,1.06c.37.26.95.39,1.71.39Z"/>
      <path class="st1" d="M339.74,216.39v-7.81h.99v7.81h-.99ZM340.57,212.81v-.91h5.95v.91h-5.95ZM346.35,216.39v-7.81h.99v7.81h-.99Z"/>
      <path class="st1" d="M356.9,211.31c1.06,0,1.86.23,2.4.68s.81,1.07.81,1.86-.27,1.41-.81,1.86c-.54.45-1.34.68-2.4.68h-4.45v-7.81h.99v6.9h3.45c.74,0,1.29-.15,1.66-.44.37-.29.55-.69.55-1.19s-.18-.9-.55-1.19c-.37-.29-.92-.44-1.66-.44h-3.62v-.91h3.62ZM361.27,216.39v-7.81h.99v7.81h-.99Z"/>
      <path class="st1" d="M366.24,216.39l3.41-3.96-3.3-3.85h1.19l2.67,3.15h.07l2.71-3.15h1.14l-3.3,3.79,3.41,4.02h-1.19l-2.77-3.32h-.07l-2.84,3.32h-1.14Z"/>
      <path class="st1" d="M385.33,216.39v-7.81h.99v6.76h.07l5.14-6.76h1.35v7.81h-.99v-6.76h-.07l-5.14,6.76h-1.35Z"/>
      <path class="st1" d="M401.07,216.54c-.63,0-1.24-.07-1.83-.21-.58-.14-1.04-.29-1.39-.46v-.98c.34.2.8.38,1.38.53.58.16,1.17.23,1.79.23.92,0,1.59-.12,2-.38.42-.25.62-.58.62-.97s-.22-.73-.65-.98-1.15-.37-2.13-.37h-1.54v-.91h1.51c.63,0,1.16-.06,1.57-.19s.71-.29.9-.49c.18-.2.28-.43.28-.67s-.09-.47-.27-.68c-.18-.21-.47-.38-.87-.51-.4-.13-.9-.19-1.52-.19s-1.25.08-1.84.24-1.07.35-1.44.55v-.98c.37-.18.85-.34,1.44-.48.59-.14,1.21-.21,1.84-.21.83,0,1.52.1,2.07.3.54.2.94.46,1.2.79.26.33.38.69.38,1.09,0,.29-.09.58-.27.85s-.44.49-.77.68c-.34.18-.73.29-1.17.33v.07c.75.07,1.32.27,1.71.6.39.33.58.75.58,1.26,0,.4-.12.76-.38,1.08s-.64.58-1.18.77c-.54.2-1.21.29-2.02.29Z"/>
      <path class="st1" d="M408.21,218.67v-3.18h.98c.16-.2.32-.52.48-.97s.3-1.02.41-1.7c.11-.68.17-1.45.17-2.3v-1.93h6.12v6.9h1.22v3.18h-1v-2.27h-7.4v2.27h-1ZM410.24,215.48h5.14v-5.99h-4.13v1.02c0,1.13-.11,2.13-.32,3.01s-.44,1.53-.69,1.93v.03Z"/>
      <path class="st1" d="M426.12,216.54c-.94,0-1.75-.17-2.45-.53-.7-.35-1.23-.83-1.61-1.44s-.56-1.3-.56-2.08.18-1.46.54-2.07c.36-.62.86-1.1,1.5-1.45.64-.35,1.37-.53,2.18-.53s1.51.17,2.13.52,1.11.82,1.46,1.43c.35.61.52,1.31.52,2.1v.46h-7.33c.07.54.25,1.01.56,1.42.31.41.72.72,1.25.95.53.23,1.13.34,1.81.34.63,0,1.23-.09,1.8-.28.56-.19,1-.4,1.3-.64v.98c-.3.21-.74.4-1.3.57-.56.17-1.16.25-1.8.25ZM428.83,212.03c-.05-.49-.2-.95-.46-1.36-.25-.41-.61-.74-1.06-.99-.45-.25-.97-.37-1.56-.37-.62,0-1.16.12-1.64.36s-.86.56-1.14.97-.45.88-.48,1.39h6.34Z"/>
      <path class="st1" d="M433.59,216.3c.3-.34.59-.99.85-1.94.27-.95.42-2.1.47-3.43l.09-2.34h6.25v7.81h-.99v-6.9h-4.29l-.06,1.52c-.05,1.35-.2,2.49-.47,3.45-.27.95-.54,1.6-.82,1.94h-1.02v-.1Z"/>
      <path class="st1" d="M446.37,216.39v-7.81h.99v6.76h.07l5.14-6.76h1.35v7.81h-.99v-6.76h-.07l-5.14,6.76h-1.35Z"/>
      <path class="st1" d="M459.04,216.39v-7.81h.99v6.76h.07l5.14-6.76h1.35v7.81h-.99v-6.76h-.07l-5.14,6.76h-1.35Z"/>
    </g>
    <g>
      <path class="st0" d="M8.9,184.93v-.54c.91-.15,1.75-.38,2.54-.71.78-.33,1.45-.8,1.99-1.42.18-.22.32-.53.41-.93.09-.4.16-.87.22-1.42s.09-1.12.11-1.72c.02-.6.03-1.19.03-1.77,0-.51,0-1.2.03-2.07.02-.87.04-1.83.05-2.86.02-1.04.03-2.1.03-3.19v-15.76c0-.65-.03-1.26-.08-1.83s-.14-1.07-.25-1.53-.27-.81-.49-1.06c-.51-.62-1.14-1.06-1.88-1.34-.74-.27-1.59-.46-2.54-.57v-.54h16.31v.54c-.76.11-1.58.31-2.45.6-.87.29-1.55.87-2.02,1.75-.33.62-.5,1.4-.52,2.34-.02.95-.04,1.84-.08,2.67,0,.91,0,1.81-.03,2.7s-.03,1.79-.03,2.7v18.27c0,1.05.02,2.07.05,3.05.04.98.2,1.67.49,2.07.44.62,1.12,1.09,2.07,1.42.95.33,1.8.53,2.56.6v.54H8.9Z"/>
      <path class="st0" d="M71.05,147.25c-.82.51-1.45,1.29-1.88,2.34-.25.54-.42,1.55-.49,3.03-.07,1.47-.15,3.04-.22,4.72-.07,1.56-.13,3.41-.19,5.54s-.08,4.41-.08,6.84v3.49c0,1.27,0,2.57.03,3.9.02,1.33.03,2.64.03,3.95v3.54c0,.15-.05.26-.14.36-.09.09-.23.14-.41.14-.29,0-.62-.18-.98-.55-3.09-3.56-5.91-6.83-8.45-9.82-2.55-2.98-4.97-5.83-7.28-8.54-2.31-2.71-4.57-5.35-6.79-7.94-2.22-2.58-4.56-5.25-7.04-8.02v23.02c0,1.85.04,3.53.14,5.02.09,1.49.32,2.6.68,3.33.4.84,1.03,1.46,1.88,1.88.86.42,2.03.72,3.52.9v.54h-13.42v-.54c.87-.11,1.75-.34,2.62-.68.87-.34,1.56-.92,2.07-1.72.51-.76.84-1.89.98-3.38s.25-3.27.33-5.35c.07-1.56.13-3.41.16-5.54.04-2.13.05-4.41.05-6.85v-6.65c0-.73-.02-1.62-.05-2.67-.11-1.05-.37-1.92-.76-2.59-.4-.67-.87-1.2-1.42-1.58-.55-.38-1.14-.65-1.77-.82-.64-.16-1.25-.28-1.83-.35v-.54h11.07l25.85,30.21v-18.54c0-1.45-.02-2.84-.05-4.17-.04-1.33-.2-2.37-.49-3.13-.37-1.02-1.01-1.85-1.94-2.48-.93-.63-2.26-1.08-4.01-1.34v-.54h13.53v.54c-1.35.18-2.43.53-3.24,1.04Z"/>
      <path class="st0" d="M126.32,158.32c-.47-1.75-1.18-3.38-2.13-4.91s-2.06-2.85-3.35-3.98c-1.29-1.12-2.75-2.02-4.36-2.67-1.62-.65-3.34-.98-5.15-.98-2.51,0-4.74.56-6.71,1.69-1.96,1.13-3.61,2.62-4.94,4.47-1.33,1.85-2.34,3.95-3.05,6.3s-1.06,4.75-1.06,7.23c0,2.62.37,5.07,1.12,7.36.74,2.29,1.81,4.28,3.19,5.97,1.38,1.69,3.05,3.03,5.02,4.01,1.96.98,4.14,1.47,6.54,1.47,1.89,0,3.66-.35,5.32-1.04,1.65-.69,3.12-1.6,4.42-2.73s2.38-2.43,3.27-3.9c.89-1.47,1.5-2.99,1.83-4.55h.65l-.16,12h-.66c-.44-.62-.89-1.18-1.36-1.69-.47-.51-.8-.76-.98-.76-.07,0-.4.19-.98.57-.58.38-1.42.8-2.51,1.25-1.09.46-2.42.85-3.98,1.2s-3.36.52-5.4.52c-3.38,0-6.44-.48-9.16-1.45-2.73-.96-5.04-2.33-6.96-4.09-1.91-1.76-3.37-3.87-4.39-6.33s-1.53-5.15-1.53-8.1c0-.65.04-1.4.13-2.23.09-.84.25-1.73.49-2.67.24-.95.56-1.94.98-2.97.42-1.04.96-2.08,1.61-3.13.76-1.24,1.71-2.42,2.84-3.54s2.46-2.12,3.98-2.97c1.53-.85,3.25-1.54,5.18-2.04s4.09-.76,6.49-.76c2.18,0,4.09.2,5.73.6s3,.84,4.09,1.31c1.09.47,1.93.91,2.51,1.31.58.4.91.6.98.6s.21-.08.41-.25c.2-.16.42-.36.65-.6s.48-.51.74-.82.49-.63.71-.96h.6v12.22l-.65.05Z"/>
      <path class="st0" d="M166.52,184.93h-35.01v-.54c.91-.15,1.81-.38,2.7-.71.89-.33,1.59-.78,2.1-1.37.18-.22.34-.54.46-.95s.23-.9.3-1.45c.07-.54.14-1.12.19-1.72s.08-1.19.08-1.77c0-.51,0-1.2.03-2.07.02-.87.04-1.83.05-2.86.02-1.04.03-2.1.03-3.19v-15.65c0-.65-.03-1.26-.08-1.83-.05-.56-.13-1.06-.24-1.5-.11-.44-.27-.78-.49-1.04-.51-.62-1.19-1.09-2.04-1.42-.85-.33-1.75-.54-2.7-.65v-.54h17.4v.54c-.47.07-1.04.18-1.69.33-.65.14-1.27.38-1.85.71-.58.33-1.08.79-1.5,1.39-.42.6-.65,1.39-.68,2.37-.04,1.27-.06,2.44-.08,3.49-.02,1.06-.04,2.09-.05,3.11-.02,1.02-.03,2.07-.03,3.16v9.93c0,.95,0,1.92.03,2.92.02,1,.03,2.12.03,3.35.04,1.16.08,2.27.14,3.33.05,1.05.24,1.84.57,2.35.14.18.44.36.87.54.44.18.96.34,1.58.46.62.13,1.29.24,2.02.33.73.09,1.45.14,2.18.14.29,0,.75,0,1.39-.03.63-.02,1.34-.05,2.1-.11s1.54-.14,2.34-.25c.8-.11,1.51-.25,2.13-.44,1.46-.4,2.66-.93,3.63-1.58s1.79-1.41,2.48-2.26c.69-.85,1.27-1.78,1.74-2.78.47-1,.93-2.04,1.37-3.13l.54.16-2.02,11.24Z"/>
      <path class="st0" d="M203.87,184.93h-33.38v-.54c.91-.15,1.75-.38,2.54-.71.78-.33,1.43-.78,1.94-1.37.18-.22.33-.54.44-.95s.21-.9.3-1.45c.09-.54.15-1.12.19-1.72.04-.6.05-1.19.05-1.77,0-.51,0-1.2.03-2.07.02-.87.04-1.83.05-2.86.02-1.04.03-2.1.03-3.19v-13.8c0-.65,0-1.33-.03-2.02-.02-.69-.05-1.34-.11-1.96-.05-.62-.15-1.17-.27-1.66-.13-.49-.3-.85-.52-1.06-.54-.58-1.13-.96-1.74-1.12-.62-.16-1.42-.32-2.4-.46v-.54h30.11l3.71,9-.55.27c-2.95-3.67-5.71-6.14-8.29-7.42-.62-.29-1.76-.54-3.44-.76-1.67-.22-3.71-.33-6.11-.33-.76,0-1.55.03-2.37.08-.82.05-1.41.12-1.77.19-.07.58-.14,1.78-.19,3.6-.05,1.82-.08,3.93-.08,6.33v3.49c0,.95,0,1.72.03,2.32.02.6.03,1.06.03,1.39v.6h1.09c.54,0,1.17-.02,1.88-.05.71-.04,1.42-.08,2.13-.14s1.3-.14,1.77-.25c1.09-.25,2-.6,2.73-1.04.73-.44,1.32-.96,1.77-1.58.45-.62.82-1.34,1.09-2.15s.52-1.74.74-2.75h.65v17.18h-.65c-.29-1.16-.74-2.36-1.34-3.6s-1.23-2.16-1.88-2.78c-.58-.51-1.28-.93-2.1-1.25-.82-.33-1.77-.53-2.86-.6-.54-.04-1-.06-1.36-.08-.36-.02-.73-.03-1.09-.03h-2.51c-.07.51-.11,1.25-.11,2.24v6.54c0,.58,0,1.14.03,1.66.02.53.03.97.03,1.34.04,1.16.1,2.26.19,3.3.09,1.04.3,1.81.63,2.32.33.51,1.11.87,2.35,1.09,1.24.22,2.58.33,4.04.33.62,0,1.41-.02,2.37-.05.96-.04,1.97-.13,3.03-.27,1.16-.14,2.24-.43,3.22-.84.98-.42,1.93-1.01,2.84-1.77s1.79-1.7,2.65-2.81c.85-1.11,1.73-2.45,2.64-4.01l.6.16-2.73,10.42Z"/>
      <path class="st0" d="M231.25,184.93v-.54c.11,0,.37-.04.79-.11s.85-.2,1.31-.38c.45-.18.85-.44,1.2-.76.35-.33.52-.74.52-1.25,0-.33-.1-.86-.3-1.61-.2-.74-.48-1.65-.85-2.73s-.78-2.26-1.25-3.57-.98-2.67-1.53-4.09h-14.51c-.54,1.38-1.07,2.7-1.58,3.95-.51,1.26-1.02,2.52-1.53,3.79-.76,1.96-1.15,3.35-1.15,4.14,0,.47.14.87.44,1.17.29.31.66.56,1.12.76.46.2.95.35,1.47.44.53.09,1.03.17,1.5.25v.54h-11.62v-.6c.95-.11,1.75-.36,2.43-.76.67-.4,1.06-.67,1.17-.82.25-.25.67-.85,1.25-1.8.58-.95,1.29-2.34,2.13-4.2.76-1.71,1.62-3.65,2.56-5.84s1.92-4.43,2.92-6.73,1.99-4.64,2.97-6.98c.98-2.35,1.91-4.54,2.78-6.57l-.55-1.2c.66-.29,1.25-.63,1.77-1.04s.99-.82,1.39-1.25c.4-.44.74-.86,1.01-1.26.27-.4.48-.73.63-.98h.44c1.13,3.02,2.2,5.88,3.22,8.59,1.02,2.71,1.99,5.32,2.92,7.83.93,2.51,1.83,4.94,2.7,7.28.87,2.34,1.74,4.66,2.62,6.95.4,1.13.77,2.06,1.12,2.81.34.75.73,1.59,1.17,2.54.07.15.24.4.49.76.25.37.59.74,1.01,1.12.42.38.94.72,1.55,1.01.62.29,1.34.46,2.18.49v.65h-15.93ZM224.11,151.88c-.22.47-.54,1.22-.96,2.24s-.94,2.25-1.55,3.71c-.62,1.45-1.3,3.1-2.04,4.94s-1.55,3.83-2.43,5.97h13.58c-.62-1.63-1.25-3.27-1.88-4.91-.64-1.63-1.25-3.21-1.85-4.72-.6-1.51-1.15-2.89-1.64-4.14-.49-1.26-.9-2.28-1.23-3.08Z"/>
      <path class="st0" d="M288.33,147.25c-.82.51-1.45,1.29-1.88,2.34-.25.54-.42,1.55-.49,3.03-.07,1.47-.15,3.04-.22,4.72-.07,1.56-.13,3.41-.19,5.54s-.08,4.41-.08,6.84v3.49c0,1.27,0,2.57.03,3.9.02,1.33.03,2.64.03,3.95v3.54c0,.15-.05.26-.14.36-.09.09-.23.14-.41.14-.29,0-.62-.18-.98-.55-3.09-3.56-5.91-6.83-8.45-9.82-2.55-2.98-4.97-5.83-7.28-8.54-2.31-2.71-4.57-5.35-6.79-7.94-2.22-2.58-4.56-5.25-7.04-8.02v23.02c0,1.85.04,3.53.14,5.02.09,1.49.32,2.6.68,3.33.4.84,1.03,1.46,1.88,1.88.86.42,2.03.72,3.52.9v.54h-13.42v-.54c.87-.11,1.75-.34,2.62-.68.87-.34,1.56-.92,2.07-1.72.51-.76.84-1.89.98-3.38s.25-3.27.33-5.35c.07-1.56.13-3.41.16-5.54.04-2.13.05-4.41.05-6.85v-6.65c0-.73-.02-1.62-.05-2.67-.11-1.05-.37-1.92-.76-2.59-.4-.67-.87-1.2-1.42-1.58-.55-.38-1.14-.65-1.77-.82-.64-.16-1.25-.28-1.83-.35v-.54h11.07l25.85,30.21v-18.54c0-1.45-.02-2.84-.05-4.17-.04-1.33-.2-2.37-.49-3.13-.37-1.02-1.01-1.85-1.94-2.48-.93-.63-2.26-1.08-4.01-1.34v-.54h13.53v.54c-1.35.18-2.43.53-3.24,1.04Z"/>
      <path class="st0" d="M333.97,178.88c-.71,1.38-1.69,2.56-2.95,3.54-1.25.98-2.75,1.71-4.5,2.18s-3.65.71-5.73.71c-1.78,0-3.31-.11-4.58-.33-1.27-.22-2.33-.48-3.16-.79-.84-.31-1.46-.59-1.88-.85-.42-.25-.68-.38-.79-.38s-.35.22-.71.66c-.37.44-.69.85-.98,1.25h-.49l-.16-10.85h.54c.33.98.75,1.94,1.25,2.86.51.93,1.06,1.8,1.66,2.62s1.24,1.54,1.91,2.15c.67.62,1.32,1.09,1.94,1.42.62.33,1.44.65,2.45.98s2,.49,2.95.49c2.69,0,4.87-.74,6.54-2.21s2.51-3.46,2.51-5.97c0-1.02-.16-1.91-.49-2.67-.33-.76-.77-1.43-1.34-1.99-.56-.56-1.23-1.04-1.99-1.45-.76-.4-1.58-.76-2.46-1.09-.87-.33-1.63-.6-2.29-.82-.65-.22-1.26-.43-1.83-.63-.56-.2-1.14-.4-1.75-.6-.6-.2-1.32-.46-2.15-.79-.95-.36-1.85-.86-2.73-1.5-.87-.64-1.63-1.38-2.29-2.24-.66-.85-1.18-1.8-1.58-2.84-.4-1.04-.6-2.13-.6-3.3,0-1.96.36-3.65,1.07-5.07s1.68-2.6,2.89-3.54c1.21-.95,2.61-1.64,4.19-2.1s3.25-.68,4.99-.68c1.64,0,3.04.13,4.2.41s2.12.57,2.86.9c.75.33,1.31.63,1.69.9.38.27.59.41.63.41.11,0,.34-.22.68-.65.35-.44.66-.87.96-1.31h.6v10.09h-.6c-.44-1.2-1-2.39-1.69-3.57s-1.49-2.24-2.4-3.16c-.91-.93-1.95-1.68-3.11-2.26-1.16-.58-2.46-.87-3.87-.87-1.13,0-2.19.16-3.19.49-1,.33-1.87.82-2.62,1.47-.74.65-1.33,1.46-1.74,2.43-.42.96-.63,2.06-.63,3.3,0,1.93.58,3.47,1.74,4.63,1.16,1.16,2.67,2.09,4.52,2.78.72.29,1.4.54,2.04.76s1.26.43,1.88.63c.62.2,1.24.41,1.88.63.63.22,1.3.46,1.99.71,2.47.91,4.38,2.23,5.74,3.96,1.36,1.73,2.04,3.88,2.04,6.46,0,1.74-.35,3.31-1.06,4.69Z"/>
      <path class="st0" d="M367.21,184.93v-.54c1.34-.11,2.47-.36,3.38-.74.91-.38,1.51-.81,1.8-1.28.07-.11.13-.33.19-.65.05-.33.1-.71.14-1.14.04-.44.06-.89.08-1.36.02-.47.03-.93.03-1.36.04-1.2.05-2.44.05-3.71v-8.62h-21.54v11.73c0,1.05.02,2.07.05,3.05.04.98.2,1.67.49,2.07.44.62,1.05,1.09,1.86,1.42.8.33,1.58.53,2.34.6v.54h-16.09v-.54c.91-.15,1.78-.39,2.62-.74s1.47-.77,1.91-1.28c.14-.18.26-.48.35-.9.09-.42.16-.9.22-1.45.05-.55.1-1.14.14-1.77.04-.63.05-1.24.05-1.83,0-.51,0-1.2.03-2.07.02-.87.04-1.83.05-2.86.02-1.04.03-2.1.03-3.19v-15.76c0-.65-.03-1.26-.08-1.83-.05-.56-.13-1.07-.24-1.53s-.27-.81-.49-1.06c-.51-.62-1.14-1.06-1.88-1.34-.75-.27-1.59-.46-2.54-.57v-.54h16.25v.54c-.51.07-1.05.18-1.64.33-.58.14-1.11.37-1.58.68s-.87.74-1.2,1.28c-.33.54-.51,1.24-.54,2.07-.04,1.27-.06,2.64-.08,4.12-.02,1.47-.03,2.88-.03,4.23v5.51h21.54v-8.78c0-.95-.02-2.02-.05-3.22-.04-.69-.08-1.41-.14-2.15-.05-.74-.23-1.35-.52-1.83-.65-.98-1.4-1.59-2.24-1.83-.84-.23-1.67-.37-2.51-.41v-.54h16.42v.54c-.87.11-1.73.35-2.56.74-.84.38-1.46.94-1.85,1.66-.15.25-.26.61-.33,1.06-.07.46-.13.96-.16,1.53-.04.56-.05,1.14-.05,1.72v17.83c0,1.02,0,2.07.03,3.16.02,1.09.03,2.29.03,3.6,0,1.05.03,2.03.08,2.92s.19,1.5.41,1.83c.47.73,1.11,1.24,1.91,1.53.8.29,1.67.49,2.62.6v.54h-16.74Z"/>
      <path class="st0" d="M427.53,173.1c-1.09,2.47-2.57,4.62-4.45,6.44-1.87,1.82-4.05,3.22-6.54,4.2-2.49.98-5.13,1.47-7.93,1.47s-5.38-.48-7.85-1.45c-2.47-.96-4.64-2.33-6.49-4.09-1.86-1.76-3.32-3.87-4.39-6.33-1.07-2.46-1.61-5.15-1.61-8.1,0-3.12.56-5.94,1.69-8.43,1.12-2.49,2.64-4.6,4.55-6.33,1.91-1.73,4.14-3.05,6.71-3.98,2.56-.93,5.26-1.39,8.1-1.39,3.09,0,5.86.55,8.32,1.64,2.45,1.09,4.54,2.55,6.24,4.39s3.02,3.96,3.93,6.35c.91,2.4,1.36,4.91,1.36,7.53,0,2.91-.54,5.6-1.64,8.07ZM421.56,158.37c-.56-2.25-1.42-4.3-2.56-6.13s-2.57-3.33-4.28-4.47c-1.71-1.15-3.73-1.72-6.05-1.72s-4.41.57-6.13,1.72c-1.73,1.14-3.14,2.63-4.25,4.45s-1.93,3.88-2.46,6.19-.79,4.64-.79,7.01.29,4.85.87,7.14,1.45,4.31,2.59,6.05c1.14,1.74,2.58,3.14,4.31,4.2,1.73,1.05,3.73,1.58,6.03,1.58s4.28-.58,5.97-1.75,3.1-2.66,4.23-4.5,1.97-3.9,2.54-6.19c.56-2.29.85-4.58.85-6.87s-.28-4.46-.85-6.71Z"/>
      <path class="st0" d="M466.36,184.93h-33.38v-.54c.91-.15,1.75-.38,2.54-.71.78-.33,1.43-.78,1.94-1.37.18-.22.33-.54.44-.95s.21-.9.3-1.45c.09-.54.15-1.12.19-1.72.04-.6.05-1.19.05-1.77,0-.51,0-1.2.03-2.07.02-.87.04-1.83.05-2.86.02-1.04.03-2.1.03-3.19v-13.8c0-.65,0-1.33-.03-2.02-.02-.69-.05-1.34-.11-1.96-.05-.62-.15-1.17-.27-1.66-.13-.49-.3-.85-.52-1.06-.54-.58-1.13-.96-1.74-1.12-.62-.16-1.42-.32-2.4-.46v-.54h30.11l3.71,9-.55.27c-2.95-3.67-5.71-6.14-8.29-7.42-.62-.29-1.76-.54-3.44-.76-1.67-.22-3.71-.33-6.11-.33-.76,0-1.55.03-2.37.08-.82.05-1.41.12-1.77.19-.07.58-.14,1.78-.19,3.6-.05,1.82-.08,3.93-.08,6.33v3.49c0,.95,0,1.72.03,2.32.02.6.03,1.06.03,1.39v.6h1.09c.54,0,1.17-.02,1.88-.05.71-.04,1.42-.08,2.13-.14s1.3-.14,1.77-.25c1.09-.25,2-.6,2.73-1.04.73-.44,1.32-.96,1.77-1.58.45-.62.82-1.34,1.09-2.15s.52-1.74.74-2.75h.65v17.18h-.65c-.29-1.16-.74-2.36-1.34-3.6s-1.23-2.16-1.88-2.78c-.58-.51-1.28-.93-2.1-1.25-.82-.33-1.77-.53-2.86-.6-.54-.04-1-.06-1.36-.08-.36-.02-.73-.03-1.09-.03h-2.51c-.07.51-.11,1.25-.11,2.24v6.54c0,.58,0,1.14.03,1.66.02.53.03.97.03,1.34.04,1.16.1,2.26.19,3.3.09,1.04.3,1.81.63,2.32.33.51,1.11.87,2.35,1.09,1.24.22,2.58.33,4.04.33.62,0,1.41-.02,2.37-.05.96-.04,1.97-.13,3.03-.27,1.16-.14,2.24-.43,3.22-.84.98-.42,1.93-1.01,2.84-1.77s1.79-1.7,2.65-2.81c.85-1.11,1.73-2.45,2.64-4.01l.6.16-2.73,10.42Z"/>
      <path class="st0" d="M498.9,178.88c-.71,1.38-1.69,2.56-2.95,3.54-1.25.98-2.75,1.71-4.5,2.18-1.75.47-3.65.71-5.73.71-1.78,0-3.31-.11-4.58-.33-1.27-.22-2.33-.48-3.16-.79s-1.46-.59-1.88-.85-.68-.38-.79-.38-.35.22-.71.66c-.36.44-.69.85-.98,1.25h-.49l-.16-10.85h.55c.33.98.74,1.94,1.25,2.86.51.93,1.06,1.8,1.66,2.62.6.82,1.23,1.54,1.91,2.15.67.62,1.32,1.09,1.94,1.42.62.33,1.44.65,2.46.98,1.02.33,2,.49,2.95.49,2.69,0,4.87-.74,6.54-2.21,1.67-1.47,2.51-3.46,2.51-5.97,0-1.02-.16-1.91-.49-2.67-.33-.76-.77-1.43-1.34-1.99-.56-.56-1.23-1.04-1.99-1.45-.76-.4-1.58-.76-2.45-1.09-.87-.33-1.64-.6-2.29-.82s-1.26-.43-1.83-.63c-.56-.2-1.15-.4-1.75-.6s-1.32-.46-2.15-.79c-.95-.36-1.85-.86-2.73-1.5s-1.64-1.38-2.29-2.24c-.65-.85-1.18-1.8-1.58-2.84s-.6-2.13-.6-3.3c0-1.96.36-3.65,1.08-5.07.72-1.42,1.68-2.6,2.89-3.54,1.21-.95,2.61-1.64,4.19-2.1,1.58-.46,3.24-.68,4.99-.68,1.63,0,3.04.13,4.2.41,1.16.27,2.12.57,2.86.9.74.33,1.31.63,1.69.9.38.27.59.41.63.41.11,0,.33-.22.68-.65.34-.44.66-.87.95-1.31h.6v10.09h-.6c-.44-1.2-1-2.39-1.69-3.57-.69-1.18-1.49-2.24-2.4-3.16-.91-.93-1.95-1.68-3.11-2.26-1.16-.58-2.45-.87-3.87-.87-1.13,0-2.19.16-3.19.49-1,.33-1.87.82-2.62,1.47-.75.65-1.33,1.46-1.75,2.43-.42.96-.63,2.06-.63,3.3,0,1.93.58,3.47,1.74,4.63,1.16,1.16,2.66,2.09,4.52,2.78.72.29,1.4.54,2.04.76s1.26.43,1.88.63c.62.2,1.24.41,1.88.63.63.22,1.3.46,1.99.71,2.46.91,4.38,2.23,5.74,3.96s2.04,3.88,2.04,6.46c0,1.74-.36,3.31-1.06,4.69Z"/>
    </g>
  </g>
  <g>
    <g>
      <path class="st1" d="M270.21,62.53c1.83-.17,2.43,2.55.78,3.2-2.41.96-3.3-2.97-.78-3.2Z"/>
      <path class="st1" d="M263.2,67.29c-.7-.65-.1-1.95.92-1.49,1.24.56-.06,2.29-.92,1.49Z"/>
      <path class="st1" d="M265.38,63.59c-.59.58-1.94.08-1.49-.92.57-1.27,2.31.12,1.49.92Z"/>
    </g>
    <path class="st0" d="M241.46,65.94l-33.96,9.25c-.25-.87-.48-1.74-.69-2.63l34.64-6.62Z"/>
    <path class="st0" d="M241.4,65.24l-35.02,5.2c-.16-.85-.29-1.71-.4-2.58l35.43-2.62Z"/>
    <path class="st0" d="M241.4,64.43l-35.65,1.34c-.08-.88-.13-1.77-.16-2.67l35.81,1.33Z"/>
    <path class="st0" d="M241.4,63.14l-35.56-6.77c.1-.96.23-1.91.38-2.85l35.18,9.62Z"/>
    <path class="st0" d="M241.4,62.34l-34.7-11.31c.24-1.09.51-2.17.83-3.24l33.87,14.55Z"/>
    <path class="st0" d="M241.56,66.69l-32.24,13.65c-.37-.89-.72-1.79-1.03-2.71l33.28-10.94Z"/>
    <path class="st0" d="M241.4,63.74l-35.83-2.55c0-.88.03-1.74.09-2.61l35.74,5.16Z"/>
    <path class="st1" d="M245.59,61.53v1.61c-1.91.45-2.47-2.01,0-1.61Z"/>
    <path class="st1" d="M245.59,65.99v1.61c-1.91.45-2.47-2.01,0-1.61Z"/>
    <path class="st1" d="M249.62,61.55v6.1h-3.38v-6.12c.78-.02,1.57.02,2.35,0,.41,0,.71,0,1.04.01Z"/>
    <path class="st1" d="M262.64,70.27c.1-.84-1.07-1.05-.93-1.86.82-2.27,1.08-5.2,1.97-7.4.68-1.67,3.06-1.1,2.85.74l-4.19,16.3c-.09.51-3.22,2.46-3.22,2.46,0,0-.34-.33-.41-.43-.48-.77,1.42-1.83,1.81-2.31,1.04-1.29,1.37-5.79,2.11-7.49Z"/>
    <path class="st1" d="M269.2,31.12l-2.3-.76c.64-1.11,1.04-1.43,1.7-1.28,1.38.3.61,2.05.61,2.05Z"/>
    <path class="st1" d="M254.47,47.29l4.84-15.56,15.94,4.82c-1.68,4.69-2.82,9.61-4.47,14.3-.58,1.65-.47,1.78-2.08,2.59-1.45.73-4.94,1.69-5.66,3.04-.32.6-1.16,4.09-1.35,4.21l-5.62.1c-.24-.14.09-.74.16-.97.44-1.37,1.9-4.37,1.77-5.62-.03-.33-.2-.66-.34-.96-.73-1.52-3.29-4.42-3.18-5.97Z"/>
    <path class="st1" d="M273.8,61.53h1.7c.38.97-.33,1.93-1.22,2.02l-.48-2.02Z"/>
    <path class="st1" d="M273.8,90.62l1.93-.08-.39,1.47c-.98.49-1.82-1.2-1.55-1.39Z"/>
    <path class="st1" d="M259.66,28.85l17.18,5.51c.2.06.36.24.36.45,0,.46-.42,1.25-.52,1.62-.77-.25-1.24-.39-1.24-.39,0,0,.15-1.05-.66-1.36-1.09-.43-1.51.64-1.51.64l-1.37-.4s.26-1.03-.78-1.4c-.89-.31-1.42.62-1.42.62l-1.35-.34s.24-1.04-.78-1.41-1.45.58-1.45.58l-1.27-.45s-.02-.39-.19-.76c-.4-.88-1.63-.53-1.91.29l-1.51-.51c.35-1.42-1.4-1.88-2.04-.62l-1.03-.33c.32-.86.51-2.01,1.49-1.73Z"/>
    <path class="st1" d="M278.8,68.14v-2.1c2.1.09,1.92,1.77,0,2.1Z"/>
    <path class="st1" d="M254.46,61.53l8.2-.18c.41-1.06.62-3.69,1.9-3.98.9-.2,5.54-.16,6.58-.04,1.12.13,2.3,1.4,1.53,2.26-.47.52-.94-.4-1.37-.48-.43-.08-1.92-.05-2.35.07-.57.15-.55,1.08-.39,1.54.35.6,3.73.53,4.49.79l.92,4.04c.74.14,3.54-.23,3.95.16.36.35.36,2.39,0,2.75-.54.53-3.08-.26-3.13,1.2l4.64,22.23c-.09.32-.84.32-1.36.26-.31-.04-.58-.24-.67-.54-.17-.51-.3-1.27-1.01-1.48-1.14-.35-3.47.38-4.29-.54-.82-.91-1.31-6.02-1.84-7.43h-2.34c-.25,0-.43-.81.01-1.12.83-.58,3.73.09,3.72-1.51-.31-2.41-.55-6.07-1.49-8.16-.48-1.07-1.1-.62-1.88-.86-.89-.27-1.02-2.07-1.08-2.87h-1.61c-.2-.21,1.3-4.85,1.41-5.6.42-2.76-2.79-3.53-3.75-1.01-.76,1.98-1.09,4.54-1.69,6.61h-7.09v-6.12Z"/>
    <path class="st0" d="M303.35,61.53c0,27-21.89,48.89-48.89,48.89-19.71,0-36.7-11.67-44.43-28.48l31.7-14.23-27,21.57s.01.07.09.16c12.82,15.12,33.4,23.47,52.62,16.74,6.57-2.3,12.5-6.15,17.39-11.06,31.4-31.55,4.21-84.97-39.77-78.37-13.18,1.98-25.86,9.83-32.7,21.24-.06.1-.09-.07,0,0l28.89,23.06-32.85-15.91c6.74-18.94,24.82-32.5,46.07-32.5,27,0,48.89,21.89,48.89,48.89Z"/>
  </g>
  <rect class="st1" x="252.83" y="60.27" width="3.25" height="8.73"/>
</svg>